<?xml version="1.0" encoding="UTF-8"?>
<svg id="Layer_1" xmlns="http://www.w3.org/2000/svg" viewBox="0 0 750 400">
  <defs>
    <style>
      .cls-1 {
        fill: #f3f0e9;
      }
    </style>
  </defs>
  <path class="cls-1" d="M105.2,299.1h-21.08v-22.49h7.97v18.38h13.11v4.11Z"/>
  <path class="cls-1" d="M195.43,299.1h-21.23v-22.49h20.41v4.12h-12.44v5h11.58v4.11h-11.58v5.14h13.25v4.11Z"/>
  <path class="cls-1" d="M292.57,280.74h-10.1v18.36h-8v-18.36h-10.05v-4.12h28.14v4.12Z"/>
  <path class="cls-1" d="M389.71,280.74h-10.1v18.36h-8v-18.36h-10.05v-4.12h28.14v4.12Z"/>
  <path class="cls-1" d="M479.94,299.1h-21.23v-22.49h20.41v4.12h-12.44v5h11.58v4.11h-11.58v5.14h13.25v4.11Z"/>
  <path class="cls-1" d="M578.63,299.1h-9.16l-5.5-5.79c-.41-.44-.81-.83-1.18-1.18-.38-.34-.76-.64-1.15-.89-.39-.25-.79-.43-1.21-.57-.42-.13-.88-.2-1.37-.2h-2.15v8.61h-7.97v-22.49h12.64c8.59,0,12.88,2.04,12.88,6.12,0,.78-.19,1.51-.57,2.17-.38.66-.91,1.26-1.6,1.8-.69.53-1.53.99-2.51,1.38-.98.39-2.07.69-3.27.91v.06c.53.1,1.04.27,1.53.51.49.24.97.51,1.43.82.46.31.9.65,1.32,1.01.42.36.8.71,1.15,1.06l6.69,6.65ZM556.91,280.41v6.26h3.46c1.71,0,3.08-.31,4.12-.94,1.05-.64,1.58-1.43,1.58-2.37,0-1.97-1.85-2.95-5.55-2.95h-3.6Z"/>
  <path class="cls-1" d="M647.78,298.24v-5.02c1.43.76,2.99,1.34,4.67,1.72,1.68.38,3.37.57,5.08.57,1,0,1.88-.06,2.63-.17.75-.12,1.37-.27,1.88-.48.5-.2.88-.44,1.12-.72.25-.28.37-.58.37-.9,0-.44-.2-.83-.59-1.18-.39-.35-.93-.66-1.62-.96-.68-.29-1.49-.58-2.43-.85-.94-.27-1.95-.55-3.04-.83-2.76-.73-4.83-1.63-6.18-2.68-1.36-1.06-2.04-2.33-2.04-3.83,0-1.17.37-2.18,1.11-3.02.74-.84,1.75-1.53,3.02-2.08,1.28-.54,2.75-.94,4.43-1.2s3.46-.38,5.33-.38,3.48.07,4.9.21c1.42.14,2.74.36,3.94.65v4.69c-.59-.26-1.24-.49-1.94-.69-.7-.2-1.42-.36-2.16-.49-.74-.13-1.48-.23-2.21-.29-.73-.06-1.43-.09-2.09-.09-.91,0-1.73.06-2.47.17s-1.37.26-1.88.46c-.51.2-.91.44-1.18.71-.28.28-.42.59-.42.93,0,.38.16.71.47,1.01.31.3.76.58,1.33.85s1.28.53,2.1.78c.82.26,1.75.52,2.79.79,1.42.38,2.69.78,3.81,1.2,1.13.42,2.09.9,2.9,1.44.81.53,1.42,1.14,1.85,1.83.43.69.64,1.48.64,2.39,0,1.25-.37,2.31-1.12,3.16-.75.85-1.76,1.54-3.05,2.07s-2.78.91-4.48,1.14c-1.7.23-3.5.34-5.39.34s-3.79-.1-5.54-.31c-1.75-.21-3.27-.52-4.55-.94Z"/>
  <rect class="cls-1" x="606.32" y="100.51" width="30.46" height="152.32"/>
  <rect class="cls-1" x="691.72" y="100.51" width="30.46" height="152.32"/>
  <polygon class="cls-1" points="653.9 100.51 706.95 252.83 674.69 252.83 621.55 100.61 653.9 100.51"/>
  <g>
    <rect class="cls-1" x="159.35" y="159.01" width="101.1" height="30.46"/>
    <rect class="cls-1" x="159.35" y="222.36" width="101.1" height="30.46"/>
    <rect class="cls-1" x="159.35" y="100.51" width="101.1" height="30.46"/>
    <rect class="cls-1" x="159.35" y="100.51" width="30.46" height="141.97"/>
  </g>
  <g>
    <rect class="cls-1" x="474.75" y="159.01" width="101.1" height="30.46"/>
    <rect class="cls-1" x="474.75" y="222.36" width="101.1" height="30.46"/>
    <rect class="cls-1" x="474.75" y="100.51" width="101.1" height="30.46"/>
    <rect class="cls-1" x="474.75" y="100.51" width="30.46" height="141.97"/>
  </g>
  <g>
    <rect class="cls-1" x="81.95" y="100.51" width="46.97" height="30.46"/>
    <rect class="cls-1" x="27.82" y="159.01" width="101.1" height="30.46"/>
    <rect class="cls-1" x="27.82" y="222.36" width="101.1" height="30.46"/>
    <rect class="cls-1" x="27.82" y="100.51" width="101.1" height="30.46"/>
    <rect class="cls-1" x="27.82" y="100.51" width="30.46" height="88.95"/>
    <rect class="cls-1" x="98.45" y="163.88" width="30.46" height="88.95"/>
    <rect class="cls-1" x="27.82" y="222.36" width="46.97" height="30.46"/>
  </g>
  <path class="cls-1" d="M321.4,121.08l1.46,1.99-.11-2.8h0s0,0,0,0l-.7-.53c-.03.15-.12.29-.28.34-.23.08-.48-.04-.55-.27-.07-.21.03-.44.23-.53l-1.69-1.28s-.04.03-.07.04c-.23.08-.47-.04-.55-.27-.03-.08-.02-.17,0-.25l-.96-.73c.04.21-.07.43-.28.5-.23.08-.48-.04-.55-.27-.08-.23.04-.48.27-.55.04-.01.08-.01.11-.02l-.51-.38c-.11-.03-.2-.09-.25-.19l-1.02-.77c-.04.11-.13.21-.26.25-.23.08-.47-.04-.55-.27-.06-.18,0-.37.15-.48l-1.71-1.29s-.07.05-.11.07c-.23.08-.48-.04-.55-.27-.04-.1-.03-.2,0-.3l-.15-.12-.37.13-.1.38s.04.06.06.1c.07.21-.03.43-.22.53l-.18.68c.04-.12.13-.22.26-.27.23-.08.48.04.55.27.08.23-.04.48-.27.55s-.48-.04-.55-.27c-.02-.06-.03-.11-.02-.17l-.35,1.34c.11.05.21.13.25.26.08.23-.04.48-.27.55-.07.02-.13.03-.2.02l-.54,2.08c.21-.04.41.07.49.28.08.23-.04.48-.27.55-.15.05-.3.01-.41-.08l-.3,1.16s.02.03.03.05c.07.19-.01.39-.17.5l-.15.58c.05-.06.11-.11.19-.14.23-.08.48.04.55.27s-.04.48-.27.55c-.23.08-.47-.04-.55-.27,0-.02,0-.04,0-.06l-.32,1.25c.1.05.18.13.22.25.08.23-.04.48-.27.55-.05.02-.11.02-.16.02l-.17.65,1.66,2.26-.09-2.34,1.39,1.89-.09-2.42,1.44,1.95-.09-2.47,1.46,1.99-.09-2.3,1.36,1.86-.09-2.3,1.37,1.86-.09-2.46,1.46,1.99-.09-2.38,1.41,1.92-.09-2.38,1.41,1.92-.09-2.47ZM316.79,117.24c.08.23-.04.48-.27.55-.23.08-.48-.04-.55-.27s.04-.48.27-.55c.23-.08.47.04.55.27ZM315.81,115.75c.23-.08.48.04.55.27.08.23-.04.48-.27.55s-.48-.04-.55-.27c-.08-.23.04-.48.27-.55ZM315.42,117.72c.08.23-.04.48-.27.55s-.48-.04-.55-.27c-.08-.23.04-.48.27-.55.23-.08.48.04.55.27ZM314.99,116.49c.08.23-.04.48-.27.55-.23.08-.47-.04-.55-.27s.04-.48.27-.55c.23-.08.48.04.55.27ZM314.57,115.29c.08.23-.04.48-.27.55s-.48-.04-.55-.27c-.08-.23.04-.48.27-.55.23-.08.48.04.55.27ZM313.78,118.75c-.23.08-.47-.04-.55-.27s.04-.48.27-.55c.23-.08.48.04.55.27s-.04.48-.27.55ZM313.58,113.77c.23-.08.48.04.55.27s-.04.48-.27.55c-.23.08-.47-.04-.55-.27-.08-.23.04-.48.27-.55ZM313.62,116.97c.08.23-.04.48-.27.55s-.48-.04-.55-.27c-.08-.23.04-.48.27-.55.23-.08.48.04.55.27ZM312.65,115.5c.23-.08.48.04.55.27.08.23-.04.48-.27.55s-.48-.04-.55-.27c-.08-.23.04-.48.27-.55ZM312.67,118.65c.08.23-.04.48-.27.55-.23.08-.47-.04-.55-.27s.04-.48.27-.55c.23-.08.48.04.55.27ZM311.69,117.16c.23-.08.48.04.55.27s-.04.48-.27.55-.48-.04-.55-.27c-.08-.23.04-.48.27-.55ZM310.95,123.83c-.23.08-.47-.04-.55-.27s.04-.48.27-.55c.23-.08.48.04.55.27s-.04.48-.27.55ZM310.92,120.66c-.08-.23.04-.48.27-.55s.48.04.55.27c.08.23-.04.48-.27.55s-.48-.04-.55-.27ZM311.34,121.87c-.08-.23.04-.48.27-.55.23-.08.48.04.55.27s-.04.48-.27.55c-.23.08-.47-.04-.55-.27ZM312.32,123.38c-.23.08-.47-.04-.55-.27s.04-.48.27-.55c.23-.08.48.04.55.27s-.04.48-.27.55ZM312.28,120.16c-.08-.23.04-.48.27-.55s.48.04.55.27c.08.23-.04.48-.27.55s-.48-.04-.55-.27ZM312.7,121.37c-.08-.23.04-.48.27-.55.23-.08.47.04.55.27s-.04.48-.27.55-.48-.04-.55-.27ZM313.69,122.88c-.23.08-.48-.04-.55-.27-.08-.23.04-.48.27-.55.23-.08.47.04.55.27.08.23-.04.48-.27.55ZM313.66,119.7c-.08-.23.04-.48.27-.55s.48.04.55.27c.08.23-.04.48-.27.55s-.48-.04-.55-.27ZM314.08,120.91c-.08-.23.04-.48.27-.55.23-.08.47.04.55.27s-.04.48-.27.55-.48-.04-.55-.27ZM315.06,122.42c-.23.08-.48-.04-.55-.27-.08-.23.04-.48.27-.55.23-.08.47.04.55.27.08.23-.04.48-.27.55ZM315.03,119.23c-.08-.23.04-.48.27-.55.23-.08.47.04.55.27s-.04.48-.27.55-.48-.04-.55-.27ZM315.45,120.43c-.08-.23.04-.48.27-.55.23-.08.47.04.55.27s-.04.48-.27.55c-.23.08-.48-.04-.55-.27ZM316.43,121.94c-.23.08-.48-.04-.55-.27s.04-.48.27-.55c.23-.08.47.04.55.27s-.04.48-.27.55ZM316.4,118.75c-.08-.23.04-.48.27-.55.23-.08.47.04.55.27s-.04.48-.27.55c-.23.08-.48-.04-.55-.27ZM316.82,119.95c-.08-.23.04-.48.27-.55s.48.04.55.27c.08.23-.04.48-.27.55s-.48-.04-.55-.27ZM317.8,121.46c-.23.08-.48-.04-.55-.27-.08-.23.04-.48.27-.55s.48.04.55.27c.08.23-.04.48-.27.55ZM317.76,118.25c-.08-.23.04-.48.27-.55.23-.08.48.04.55.27s-.04.48-.27.55c-.23.08-.47-.04-.55-.27ZM318.18,119.46c-.08-.23.04-.48.27-.55.23-.08.48.04.55.27.08.23-.04.48-.27.55-.23.08-.47-.04-.55-.27ZM319.17,120.97c-.23.08-.47-.04-.55-.27s.04-.48.27-.55.48.04.55.27-.04.48-.27.55ZM319.55,118.98c-.08-.23.04-.48.27-.55s.48.04.55.27c.08.23-.04.48-.27.55s-.48-.04-.55-.27ZM320.54,120.49c-.23.08-.48-.04-.55-.27-.08-.23.04-.48.27-.55s.48.04.55.27c.08.23-.04.48-.27.55Z"/>
  <rect class="cls-1" x="312.23" y="111.92" width=".39" height=".87" transform="translate(-19.58 109.19) rotate(-19.23)"/>
  <path class="cls-1" d="M312.37,111.64c-.08-.23.04-.48.27-.55.01,0,.03,0,.04,0l.54-2.12c-.17,0-.33-.12-.39-.29-.08-.23.04-.48.27-.55.11-.04.23-.03.34.02l.33-1.26c-.02-.11.01-.22.08-.31l.15-.59s-.05.04-.09.05c-.23.08-.47-.04-.55-.27-.08-.23.04-.48.27-.55.2-.07.42.02.52.21l.3-1.16c-.06-.05-.11-.11-.14-.19-.08-.23.04-.48.27-.55.02,0,.05,0,.07,0l.41-1.61-.97-.72c0,.18-.11.34-.29.4-.23.08-.48-.04-.55-.27-.03-.08-.02-.15,0-.23h-2.21c.04.21-.07.42-.28.49-.23.08-.48-.04-.55-.27-.03-.08-.02-.15,0-.23h-3.72s.05.07.07.11c.08.23-.04.48-.27.55s-.48-.04-.55-.27c-.05-.14-.01-.29.07-.4h-.71l-.09.34c.07.05.14.12.17.21.08.23-.04.48-.27.55-.04.01-.08.01-.11.02l-.6,2.23c.22-.06.44.06.52.27.08.23-.04.48-.27.55-.16.06-.33,0-.45-.11l-.15.56.45.34c0-.18.11-.35.29-.42.23-.08.47.04.55.27s-.04.48-.27.55c-.01,0-.02,0-.03,0l1.73,1.32c.05-.09.13-.16.23-.19.23-.08.48.04.55.27.06.16,0,.33-.1.44l1.73,1.32s.03-.02.05-.03c.23-.08.48.04.55.27.03.08.02.15,0,.23l.95.72c-.05-.21.06-.44.27-.51.23-.08.48.04.55.27.08.23-.04.48-.27.55-.04.01-.08.02-.13.02l.58.44c.1.03.19.09.25.19l.34.26.37-.13.02-.06c-.05-.05-.1-.1-.12-.17ZM314.14,102.28c.23-.08.48.04.55.27.08.23-.04.48-.27.55s-.48-.04-.55-.27c-.08-.23.04-.48.27-.55ZM312.95,107.69c-.23.08-.47-.04-.55-.27s.04-.48.27-.55c.23-.08.48.04.55.27.08.23-.04.48-.27.55ZM311.98,106.22c-.08-.23.04-.48.27-.55.23-.08.48.04.55.27s-.04.48-.27.55c-.23.08-.48-.04-.55-.27ZM313.75,104.25c.08.23-.04.48-.27.55s-.48-.04-.55-.27c-.08-.23.04-.48.27-.55s.48.04.55.27ZM313.32,103.03c.08.23-.04.48-.27.55-.23.08-.48-.04-.55-.27s.04-.48.27-.55c.23-.08.47.04.55.27ZM312.35,101.55c.23-.08.47.04.55.27s-.04.48-.27.55-.48-.04-.55-.27c-.08-.23.04-.48.27-.55ZM312.37,104.71c.08.23-.04.48-.27.55s-.48-.04-.55-.27c-.08-.23.04-.48.27-.55s.48.04.55.27ZM311.95,103.49c.08.23-.04.48-.27.55-.23.08-.48-.04-.55-.27s.04-.48.27-.55c.23-.08.47.04.55.27ZM310.97,102.01c.23-.08.47.04.55.27.08.23-.04.48-.27.55s-.48-.04-.55-.27c-.08-.23.04-.48.27-.55ZM311,105.19c.08.23-.04.48-.27.55-.23.08-.48-.04-.55-.27s.04-.48.27-.55c.23-.08.47.04.55.27ZM310.58,103.96c.08.23-.04.48-.27.55s-.48-.04-.55-.27.04-.48.27-.55c.23-.08.47.04.55.27ZM310.15,102.76c.08.23-.04.48-.27.55s-.48-.04-.55-.27c-.08-.23.04-.48.27-.55s.48.04.55.27ZM309.17,101.25c.23-.08.48.04.55.27.08.23-.04.48-.27.55s-.48-.04-.55-.27c-.08-.23.04-.48.27-.55ZM309.21,104.44c.08.23-.04.48-.27.55s-.48-.04-.55-.27c-.08-.23.04-.48.27-.55s.48.04.55.27ZM308.79,103.24c.08.23-.04.48-.27.55-.23.08-.47-.04-.55-.27s.04-.48.27-.55c.23-.08.48.04.55.27ZM307.8,101.73c.23-.08.48.04.55.27s-.04.48-.27.55c-.23.08-.47-.04-.55-.27s.04-.48.27-.55ZM306.43,102.22c.23-.08.48.04.55.27.08.23-.04.48-.27.55-.23.08-.48-.04-.55-.27-.08-.23.04-.48.27-.55ZM304.79,103.24c-.08-.23.04-.48.27-.55s.48.04.55.27c.08.23-.04.48-.27.55-.23.08-.48-.04-.55-.27ZM305.22,104.48c-.08-.23.04-.48.27-.55s.48.04.55.27c.08.23-.04.48-.27.55-.23.08-.48-.04-.55-.27ZM305.64,105.68c-.08-.23.04-.48.27-.55s.48.04.55.27c.08.23-.04.48-.27.55s-.48-.04-.55-.27ZM306.63,107.18c-.23.08-.47-.04-.55-.27-.08-.23.04-.48.27-.55.23-.08.48.04.55.27s-.04.48-.27.55ZM306.6,104.02c-.08-.23.04-.48.27-.55.23-.08.48.04.55.27.08.23-.04.48-.27.55-.23.08-.48-.04-.55-.27ZM307.02,105.22c-.08-.23.04-.48.27-.55s.48.04.55.27c.08.23-.04.48-.27.55-.23.08-.48-.04-.55-.27ZM307.45,106.45c-.08-.23.04-.48.27-.55.23-.08.48.04.55.27s-.04.48-.27.55c-.23.08-.47-.04-.55-.27ZM307.87,107.67c-.08-.23.04-.48.27-.55s.48.04.55.27c.08.23-.04.48-.27.55-.23.08-.47-.04-.55-.27ZM308.85,109.14c-.23.08-.48-.04-.55-.27-.08-.23.04-.48.27-.55.23-.08.48.04.55.27.08.23-.04.48-.27.55ZM308.81,105.95c-.08-.23.04-.48.27-.55.23-.08.47.04.55.27.08.23-.04.48-.27.55s-.48-.04-.55-.27ZM309.24,107.18c-.08-.23.04-.48.27-.55.23-.08.47.04.55.27s-.04.48-.27.55c-.23.08-.48-.04-.55-.27ZM309.66,108.38c-.08-.23.04-.48.27-.55s.48.04.55.27c.08.23-.04.48-.27.55s-.48-.04-.55-.27ZM310.65,109.9c-.23.08-.48-.04-.55-.27s.04-.48.27-.55c.23-.08.47.04.55.27s-.04.48-.27.55ZM310.61,106.7c-.08-.23.04-.48.27-.55s.48.04.55.27c.08.23-.04.48-.27.55s-.48-.04-.55-.27ZM311.03,107.9c-.08-.23.04-.48.27-.55.23-.08.48.04.55.27s-.04.48-.27.55c-.23.08-.47-.04-.55-.27ZM311.46,109.15c-.08-.23.04-.48.27-.55s.48.04.55.27c.08.23-.04.48-.27.55s-.48-.04-.55-.27ZM311.88,110.36c-.08-.23.04-.48.27-.55.23-.08.48.04.55.27s-.04.48-.27.55c-.23.08-.47-.04-.55-.27Z"/>
  <g>
    <path class="cls-1" d="M323.48,143.47c-.08-.23.04-.48.27-.55.04-.01.09-.02.13-.02l.53-2.08c-.18,0-.35-.1-.42-.29-.08-.23.04-.48.27-.55.12-.04.25-.02.36.04l.32-1.24c-.01-.11.01-.22.08-.31l.16-.62s-.06.05-.1.06c-.23.08-.48-.04-.55-.27-.08-.23.04-.48.27-.55.21-.07.43.03.53.22l.3-1.17c-.07-.05-.12-.11-.15-.2-.08-.23.04-.48.27-.55.03,0,.05,0,.08-.01l.53-2.06c-.21.05-.44-.06-.51-.27-.08-.23.04-.48.27-.55.16-.05.32-.01.43.09l.22-.85-1.66-2.26.09,2.47-1.46-1.99.09,2.38-1.41-1.92.09,2.38-1.41-1.92.09,2.46-1.46-1.99.09,2.3-1.37-1.86.09,2.3-1.36-1.86.09,2.47-1.46-1.99.09,2.42-1.44-1.95.09,2.34-1.39-1.89.11,2.8h0l.53.4s.09-.06.14-.08c.23-.08.48.04.55.27.04.11.03.23-.02.33l1.03.78s-.03-.03-.03-.06c-.08-.23.04-.48.27-.55s.48.04.55.27c.08.23-.04.48-.27.55-.08.03-.16.02-.23,0l.48.36c.19-.01.38.09.44.28,0,.02,0,.04,0,.06l.95.72c.03-.14.13-.27.27-.32.23-.08.48.04.55.27.07.2-.02.42-.21.52l1.71,1.29s.1-.09.16-.11c.23-.08.48.04.55.27.04.12.02.25-.04.36l1.1.83s-.07-.09-.09-.15c-.08-.23.04-.48.27-.55.23-.08.47.04.55.27s-.04.48-.27.55c-.13.04-.26.02-.36-.04l.55.42c.21-.04.43.07.5.28.01.04.01.08.02.11l.31.23.37-.13.05-.19c-.08-.05-.16-.13-.19-.23ZM315.57,137.11c-.23.08-.48-.04-.55-.27-.08-.23.04-.48.27-.55s.48.04.55.27c.08.23-.04.48-.27.55ZM324.12,139.59c-.23.08-.48-.04-.55-.27-.08-.23.04-.48.27-.55s.48.04.55.27c.08.23-.04.48-.27.55ZM323.14,138.1c-.08-.23.04-.48.27-.55s.48.04.55.27c.08.23-.04.48-.27.55-.23.08-.48-.04-.55-.27ZM325.86,134.45c.08.23-.04.48-.27.55-.23.08-.48-.04-.55-.27s.04-.48.27-.55c.23-.08.47.04.55.27ZM324.88,132.94c.23-.08.47.04.55.27s-.04.48-.27.55c-.23.08-.48-.04-.55-.27s.04-.48.27-.55ZM324.91,136.13c.08.23-.04.48-.27.55-.23.08-.48-.04-.55-.27s.04-.48.27-.55c.23-.08.47.04.55.27ZM324.49,134.93c.08.23-.04.48-.27.55s-.48-.04-.55-.27c-.08-.23.04-.48.27-.55s.48.04.55.27ZM323.51,133.42c.23-.08.48.04.55.27.08.23-.04.48-.27.55s-.48-.04-.55-.27c-.08-.23.04-.48.27-.55ZM323.54,136.59c.08.23-.04.48-.27.55-.23.08-.48-.04-.55-.27s.04-.48.27-.55c.23-.08.47.04.55.27ZM323.12,135.39c.08.23-.04.48-.27.55s-.48-.04-.55-.27c-.08-.23.04-.48.27-.55s.48.04.55.27ZM322.13,133.88c.23-.08.48.04.55.27.08.23-.04.48-.27.55s-.48-.04-.55-.27c-.08-.23.04-.48.27-.55ZM322.17,137.07c.08.23-.04.48-.27.55s-.48-.04-.55-.27c-.08-.23.04-.48.27-.55s.48.04.55.27ZM321.75,135.87c.08.23-.04.48-.27.55-.23.08-.47-.04-.55-.27s.04-.48.27-.55.48.04.55.27ZM320.76,134.36c.23-.08.48.04.55.27.08.23-.04.48-.27.55-.23.08-.47-.04-.55-.27-.08-.23.04-.48.27-.55ZM320.38,136.34c.08.23-.04.48-.27.55-.23.08-.47-.04-.55-.27s.04-.48.27-.55c.23-.08.48.04.55.27ZM319.39,134.83c.23-.08.48.04.55.27s-.04.48-.27.55c-.23.08-.47-.04-.55-.27s.04-.48.27-.55ZM316.38,136.34c-.08-.23.04-.48.27-.55.23-.08.47.04.55.27s-.04.48-.27.55c-.23.08-.48-.04-.55-.27ZM316.82,137.59c-.08-.23.04-.48.27-.55.23-.08.47.04.55.27s-.04.48-.27.55c-.23.08-.48-.04-.55-.27ZM317.79,139.06c-.23.08-.48-.04-.55-.27-.08-.23.04-.48.27-.55s.48.04.55.27c.08.23-.04.48-.27.55ZM317.76,135.89c-.08-.23.04-.48.27-.55.23-.08.47.04.55.27s-.04.48-.27.55c-.23.08-.48-.04-.55-.27ZM318.19,137.13c-.08-.23.04-.48.27-.55.23-.08.47.04.55.27s-.04.48-.27.55c-.23.08-.48-.04-.55-.27ZM318.61,138.33c-.08-.23.04-.48.27-.55s.48.04.55.27c.08.23-.04.48-.27.55s-.48-.04-.55-.27ZM319.04,139.56c-.08-.23.04-.48.27-.55.23-.08.48.04.55.27s-.04.48-.27.55c-.23.08-.47-.04-.55-.27ZM320.02,141.05c-.23.08-.47-.04-.55-.27s.04-.48.27-.55c.23-.08.48.04.55.27s-.04.48-.27.55ZM319.98,137.84c-.08-.23.04-.48.27-.55s.48.04.55.27-.04.48-.27.55c-.23.08-.47-.04-.55-.27ZM320.4,139.06c-.08-.23.04-.48.27-.55s.48.04.55.27c.08.23-.04.48-.27.55-.23.08-.48-.04-.55-.27ZM320.83,140.28c-.08-.23.04-.48.27-.55.23-.08.47.04.55.27s-.04.48-.27.55c-.23.08-.48-.04-.55-.27ZM321.81,141.76c-.23.08-.48-.04-.55-.27s.04-.48.27-.55.48.04.55.27c.08.23-.04.48-.27.55ZM321.77,138.58c-.08-.23.04-.48.27-.55.23-.08.47.04.55.27s-.04.48-.27.55c-.23.08-.48-.04-.55-.27ZM322.2,139.81c-.08-.23.04-.48.27-.55s.48.04.55.27c.08.23-.04.48-.27.55-.23.08-.48-.04-.55-.27ZM322.62,141.01c-.08-.23.04-.48.27-.55s.48.04.55.27c.08.23-.04.48-.27.55s-.48-.04-.55-.27ZM323.06,142.26c-.08-.23.04-.48.27-.55s.48.04.55.27c.08.23-.04.48-.27.55s-.48-.04-.55-.27Z"/>
    <rect class="cls-1" x="323.39" y="143.92" width=".39" height=".87" transform="translate(-29.49 114.64) rotate(-19.23)"/>
  </g>
  <path class="cls-1" d="M338.47,170.03l1.46,1.99-.11-2.8-.7-.53c-.03.15-.12.29-.28.34-.23.08-.48-.04-.55-.27-.07-.21.03-.44.23-.53l-1.69-1.28s-.04.03-.07.04c-.23.08-.47-.04-.55-.27-.03-.08-.02-.17,0-.25l-.96-.73c.04.21-.07.43-.28.5-.23.08-.48-.04-.55-.27s.04-.48.27-.55c.04-.01.08-.01.11-.02l-.51-.38c-.11-.03-.2-.1-.25-.19l-1.02-.77c-.04.11-.13.21-.26.25-.23.08-.47-.04-.55-.27-.06-.18,0-.37.15-.48l-1.71-1.29s-.07.05-.11.07c-.23.08-.48-.04-.55-.27-.04-.1-.03-.2,0-.3l-.15-.12-.37.13-.1.38s.04.06.06.1c.07.21-.03.43-.22.53l-.18.68c.04-.12.13-.22.26-.27.23-.08.48.04.55.27.08.23-.04.48-.27.55-.23.08-.48-.04-.55-.27-.02-.06-.03-.11-.02-.17l-.35,1.34c.11.05.21.13.25.26.08.23-.04.48-.27.55-.07.02-.13.02-.2.02l-.54,2.08c.21-.04.41.07.49.28.08.23-.04.48-.27.55-.15.05-.3.01-.41-.08l-.3,1.16s.02.03.03.05c.07.19-.01.39-.17.5l-.15.58c.05-.06.11-.11.19-.14.23-.08.48.04.55.27.08.23-.04.48-.27.55s-.48-.04-.55-.27c0-.02,0-.04,0-.06l-.32,1.25c.1.05.18.13.22.25.08.23-.04.48-.27.55-.05.02-.11.02-.16.02l-.17.65,1.66,2.26-.09-2.34,1.39,1.89-.09-2.42,1.44,1.95-.09-2.47,1.46,1.99-.09-2.3,1.36,1.86-.09-2.3,1.37,1.86-.09-2.46,1.46,1.99-.09-2.38,1.41,1.92-.09-2.38,1.41,1.92-.09-2.47ZM333.86,166.19c.08.23-.04.48-.27.55s-.48-.04-.55-.27c-.08-.23.04-.48.27-.55s.48.04.55.27ZM332.88,164.7c.23-.08.48.04.55.27s-.04.48-.27.55c-.23.08-.47-.04-.55-.27s.04-.48.27-.55ZM332.49,166.67c.08.23-.04.48-.27.55-.23.08-.47-.04-.55-.27s.04-.48.27-.55c.23-.08.48.04.55.27ZM332.07,165.44c.08.23-.04.48-.27.55-.23.08-.47-.04-.55-.27s.04-.48.27-.55c.23-.08.48.04.55.27ZM331.65,164.24c.08.23-.04.48-.27.55s-.48-.04-.55-.27c-.08-.23.04-.48.27-.55.23-.08.48.04.55.27ZM330.86,167.7c-.23.08-.48-.04-.55-.27-.08-.23.04-.48.27-.55.23-.08.48.04.55.27s-.04.48-.27.55ZM330.65,162.72c.23-.08.48.04.55.27.08.23-.04.48-.27.55s-.48-.04-.55-.27c-.08-.23.04-.48.27-.55ZM330.7,165.92c.08.23-.04.48-.27.55s-.48-.04-.55-.27c-.08-.23.04-.48.27-.55s.48.04.55.27ZM329.72,164.45c.23-.08.47.04.55.27s-.04.48-.27.55c-.23.08-.48-.04-.55-.27s.04-.48.27-.55ZM329.75,167.6c.08.23-.04.48-.27.55s-.48-.04-.55-.27c-.08-.23.04-.48.27-.55.23-.08.48.04.55.27ZM328.77,166.11c.23-.08.48.04.55.27.08.23-.04.48-.27.55s-.48-.04-.55-.27c-.08-.23.04-.48.27-.55ZM328.02,172.78c-.23.08-.48-.04-.55-.27-.08-.23.04-.48.27-.55s.48.04.55.27c.08.23-.04.48-.27.55ZM327.99,169.61c-.08-.23.04-.48.27-.55s.48.04.55.27c.08.23-.04.48-.27.55-.23.08-.48-.04-.55-.27ZM328.41,170.81c-.08-.23.04-.48.27-.55.23-.08.48.04.55.27.08.23-.04.48-.27.55s-.48-.04-.55-.27ZM329.4,172.32c-.23.08-.48-.04-.55-.27-.08-.23.04-.48.27-.55s.48.04.55.27c.08.23-.04.48-.27.55ZM329.35,169.11c-.08-.23.04-.48.27-.55.23-.08.48.04.55.27s-.04.48-.27.55c-.23.08-.47-.04-.55-.27ZM329.77,170.32c-.08-.23.04-.48.27-.55s.48.04.55.27c.08.23-.04.48-.27.55s-.48-.04-.55-.27ZM330.76,171.83c-.23.08-.48-.04-.55-.27-.08-.23.04-.48.27-.55s.48.04.55.27c.08.23-.04.48-.27.55ZM330.73,168.65c-.08-.23.04-.48.27-.55.23-.08.48.04.55.27s-.04.48-.27.55c-.23.08-.47-.04-.55-.27ZM331.15,169.86c-.08-.23.04-.48.27-.55s.48.04.55.27c.08.23-.04.48-.27.55s-.48-.04-.55-.27ZM332.14,171.37c-.23.08-.48-.04-.55-.27-.08-.23.04-.48.27-.55s.48.04.55.27c.08.23-.04.48-.27.55ZM332.1,168.18c-.08-.23.04-.48.27-.55s.48.04.55.27c.08.23-.04.48-.27.55s-.48-.04-.55-.27ZM332.52,169.38c-.08-.23.04-.48.27-.55.23-.08.47.04.55.27s-.04.48-.27.55c-.23.08-.48-.04-.55-.27ZM333.51,170.89c-.23.08-.48-.04-.55-.27s.04-.48.27-.55c.23-.08.47.04.55.27s-.04.48-.27.55ZM333.47,167.7c-.08-.23.04-.48.27-.55.23-.08.47.04.55.27s-.04.48-.27.55c-.23.08-.48-.04-.55-.27ZM333.89,168.9c-.08-.23.04-.48.27-.55.23-.08.47.04.55.27s-.04.48-.27.55c-.23.08-.48-.04-.55-.27ZM334.88,170.41c-.23.08-.48-.04-.55-.27s.04-.48.27-.55c.23-.08.47.04.55.27s-.04.48-.27.55ZM334.83,167.2c-.08-.23.04-.48.27-.55s.48.04.55.27c.08.23-.04.48-.27.55s-.48-.04-.55-.27ZM335.25,168.41c-.08-.23.04-.48.27-.55.23-.08.48.04.55.27s-.04.48-.27.55c-.23.08-.47-.04-.55-.27ZM336.24,169.92c-.23.08-.47-.04-.55-.27s.04-.48.27-.55c.23-.08.48.04.55.27s-.04.48-.27.55ZM336.62,167.93c-.08-.23.04-.48.27-.55s.48.04.55.27c.08.23-.04.48-.27.55s-.48-.04-.55-.27ZM337.61,169.44c-.23.08-.47-.04-.55-.27-.08-.23.04-.48.27-.55s.48.04.55.27c.08.23-.04.48-.27.55Z"/>
  <rect class="cls-1" x="329.3" y="160.87" width=".39" height=".87" transform="translate(-34.75 117.55) rotate(-19.23)"/>
  <path class="cls-1" d="M329.43,160.59c-.08-.23.04-.48.27-.55.01,0,.03,0,.04,0l.54-2.12c-.17,0-.33-.12-.39-.29-.08-.23.04-.48.27-.55.11-.04.23-.03.34.02l.33-1.26c-.02-.11.01-.22.08-.31l.15-.59s-.05.04-.09.05c-.23.08-.48-.04-.55-.27-.08-.23.04-.48.27-.55.2-.07.42.02.52.21l.3-1.16c-.06-.05-.11-.11-.14-.19-.08-.23.04-.48.27-.55.02,0,.05,0,.07,0l.41-1.61-.82-.61s.03.04.04.07c.08.23-.04.48-.27.55-.23.08-.48-.04-.55-.27s.04-.48.27-.55c.08-.03.17-.02.25,0l-.53-.4c-.18,0-.35-.11-.42-.29,0,0,0-.02,0-.03l-1.03-.77c-.05.1-.13.18-.24.21-.23.08-.48-.04-.55-.27-.06-.17,0-.34.11-.46l-1.71-1.28s-.04.03-.07.04c-.23.08-.48-.04-.55-.27-.03-.08-.02-.16,0-.24l-.96-.72c.03.2-.08.4-.28.47-.23.08-.47-.04-.55-.27s.04-.48.27-.55c.03,0,.05,0,.08-.01l-.65-.49-.37.13-.23.84c.16.02.3.12.35.28.08.23-.04.48-.27.55-.11.04-.21.03-.31-.01l-.34,1.27c.02.13-.01.26-.1.36l-.16.58s.07-.05.11-.07c.23-.08.48.04.55.27.08.23-.04.48-.27.55-.22.08-.45-.03-.54-.24l-.31,1.16c.07.05.14.12.17.21.08.23-.04.48-.27.55-.04.01-.08.01-.11.02l-.6,2.23c.22-.06.44.06.52.27.08.23-.04.48-.27.55-.16.06-.33,0-.45-.11l-.15.56.45.34c0-.18.11-.35.29-.42.23-.08.48.04.55.27.08.23-.04.48-.27.55-.01,0-.02,0-.03,0l1.73,1.32c.05-.09.13-.16.23-.19.23-.08.48.04.55.27.06.16,0,.33-.1.44l1.73,1.32s.03-.02.05-.03c.23-.08.48.04.55.27.03.08.02.15,0,.23l.95.72c-.05-.21.06-.44.27-.51.23-.08.48.04.55.27.08.23-.04.48-.27.55-.04.01-.08.02-.13.02l.58.44c.1.03.19.09.25.19l.34.26.37-.13.02-.06c-.05-.05-.1-.1-.12-.17ZM331.2,151.23c.23-.08.47.04.55.27s-.04.48-.27.55c-.23.08-.48-.04-.55-.27s.04-.48.27-.55ZM330.01,156.64c-.23.08-.47-.04-.55-.27s.04-.48.27-.55c.23-.08.48.04.55.27s-.04.48-.27.55ZM329.31,154.62c.23-.08.48.04.55.27.08.23-.04.48-.27.55s-.48-.04-.55-.27c-.08-.23.04-.48.27-.55ZM328.61,153.95c-.08-.23.04-.48.27-.55.23-.08.47.04.55.27s-.04.48-.27.55c-.23.08-.48-.04-.55-.27ZM330.81,153.2c.08.23-.04.48-.27.55-.23.08-.48-.04-.55-.27s.04-.48.27-.55c.23-.08.47.04.55.27ZM330.38,151.98c.08.23-.04.48-.27.55-.23.08-.48-.04-.55-.27s.04-.48.27-.55c.23-.08.47.04.55.27ZM329.96,150.77c.08.23-.04.48-.27.55s-.48-.04-.55-.27c-.08-.23.04-.48.27-.55s.48.04.55.27ZM328.98,149.26c.23-.08.48.04.55.27.08.23-.04.48-.27.55s-.48-.04-.55-.27c-.08-.23.04-.48.27-.55ZM329.01,152.44c.08.23-.04.48-.27.55-.23.08-.48-.04-.55-.27s.04-.48.27-.55c.23-.08.47.04.55.27ZM328.59,151.23c.08.23-.04.48-.27.55s-.48-.04-.55-.27c-.08-.23.04-.48.27-.55.23-.08.48.04.55.27ZM327.08,152.65c.23-.08.48.04.55.27.08.23-.04.48-.27.55s-.48-.04-.55-.27c-.08-.23.04-.48.27-.55ZM326.4,152c-.08-.23.04-.48.27-.55.23-.08.48.04.55.27s-.04.48-.27.55c-.23.08-.47-.04-.55-.27ZM327.51,153.87c.23-.08.47.04.55.27.08.23-.04.48-.27.55s-.48-.04-.55-.27c-.08-.23.04-.48.27-.55ZM328.15,149.99c.08.23-.04.48-.27.55s-.48-.04-.55-.27c-.08-.23.04-.48.27-.55s.48.04.55.27ZM327.69,148.66c.08.23-.04.48-.27.55-.23.08-.48-.04-.55-.27s.04-.48.27-.55c.23-.08.47.04.55.27ZM326.71,147.17c.23-.08.47.04.55.27.08.23-.04.48-.27.55s-.48-.04-.55-.27c-.08-.23.04-.48.27-.55ZM326.78,150.47c.08.23-.04.48-.27.55-.23.08-.47-.04-.55-.27s.04-.48.27-.55c.23-.08.48.04.55.27ZM325.29,151.92c.23-.08.48.04.55.27.08.23-.04.48-.27.55s-.48-.04-.55-.27c-.08-.23.04-.48.27-.55ZM324.59,151.23c-.08-.23.04-.48.27-.55.23-.08.48.04.55.27.08.23-.04.48-.27.55s-.48-.04-.55-.27ZM325.71,153.13c.23-.08.48.04.55.27s-.04.48-.27.55c-.23.08-.47-.04-.55-.27s.04-.48.27-.55ZM326.32,149.14c.08.23-.04.48-.27.55-.23.08-.48-.04-.55-.27-.08-.23.04-.48.27-.55s.48.04.55.27ZM325.89,147.91c.08.23-.04.48-.27.55s-.48-.04-.55-.27c-.08-.23.04-.48.27-.55s.48.04.55.27ZM324.92,146.44c.23-.08.48.04.55.27s-.04.48-.27.55c-.23.08-.47-.04-.55-.27s.04-.48.27-.55ZM324.95,149.62c.08.23-.04.48-.27.55-.23.08-.47-.04-.55-.27-.08-.23.04-.48.27-.55s.48.04.55.27ZM324.52,148.39c.08.23-.04.48-.27.55-.23.08-.47-.04-.55-.27s.04-.48.27-.55c.23-.08.48.04.55.27ZM323.78,152c-.23.08-.48-.04-.55-.27s.04-.48.27-.55c.23-.08.47.04.55.27s-.04.48-.27.55ZM323.55,146.92c.23-.08.48.04.55.27.08.23-.04.48-.27.55s-.48-.04-.55-.27c-.08-.23.04-.48.27-.55ZM323.03,149.85c.23-.08.48.04.55.27.08.23-.04.48-.27.55s-.48-.04-.55-.27c-.08-.23.04-.48.27-.55ZM321.85,152.19c-.08-.23.04-.48.27-.55.23-.08.47.04.55.27s-.04.48-.27.55c-.23.08-.48-.04-.55-.27ZM322.29,153.43c-.08-.23.04-.48.27-.55.23-.08.47.04.55.27s-.04.48-.27.55c-.23.08-.48-.04-.55-.27ZM322.71,154.64c-.08-.23.04-.48.27-.55s.48.04.55.27c.08.23-.04.48-.27.55-.23.08-.48-.04-.55-.27ZM323.69,156.13c-.23.08-.48-.04-.55-.27-.08-.23.04-.48.27-.55s.48.04.55.27c.08.23-.04.48-.27.55ZM323.66,152.97c-.08-.23.04-.48.27-.55.23-.08.47.04.55.27s-.04.48-.27.55c-.23.08-.48-.04-.55-.27ZM324.08,154.18c-.08-.23.04-.48.27-.55s.48.04.55.27c.08.23-.04.48-.27.55s-.48-.04-.55-.27ZM324.51,155.4c-.08-.23.04-.48.27-.55s.48.04.55.27c.08.23-.04.48-.27.55s-.48-.04-.55-.27ZM324.94,156.62c-.08-.23.04-.48.27-.55.23-.08.48.04.55.27s-.04.48-.27.55c-.23.08-.47-.04-.55-.27ZM325.91,158.1c-.23.08-.48-.04-.55-.27-.08-.23.04-.48.27-.55s.48.04.55.27c.08.23-.04.48-.27.55ZM325.87,154.9c-.08-.23.04-.48.27-.55s.48.04.55.27c.08.23-.04.48-.27.55s-.48-.04-.55-.27ZM326.3,156.13c-.08-.23.04-.48.27-.55s.48.04.55.27c.08.23-.04.48-.27.55s-.48-.04-.55-.27ZM326.72,157.33c-.08-.23.04-.48.27-.55.23-.08.47.04.55.27s-.04.48-.27.55c-.23.08-.48-.04-.55-.27ZM327.71,158.85c-.23.08-.48-.04-.55-.27s.04-.48.27-.55c.23-.08.47.04.55.27s-.04.48-.27.55ZM327.67,155.65c-.08-.23.04-.48.27-.55.23-.08.47.04.55.27s-.04.48-.27.55c-.23.08-.48-.04-.55-.27ZM328.09,156.86c-.08-.23.04-.48.27-.55s.48.04.55.27c.08.23-.04.48-.27.55s-.48-.04-.55-.27ZM328.53,158.11c-.08-.23.04-.48.27-.55s.48.04.55.27c.08.23-.04.48-.27.55-.23.08-.48-.04-.55-.27ZM328.95,159.31c-.08-.23.04-.48.27-.55s.48.04.55.27c.08.23-.04.48-.27.55s-.48-.04-.55-.27Z"/>
  <polyline class="cls-1" points="353 230.03 352.78 229.72 352.81 230.54"/>
  <rect class="cls-1" x="341.12" y="194.01" width=".39" height=".87" transform="translate(-45 123.29) rotate(-19.23)"/>
  <path class="cls-1" d="M357.11,218.97l-.26-.19c-.03.15-.12.29-.28.34-.23.08-.47-.04-.55-.27-.07-.21.03-.44.23-.53l-1.69-1.28s-.04.03-.07.04c-.23.08-.48-.04-.55-.27-.03-.08-.02-.17,0-.25l-.96-.73c.04.21-.07.43-.28.5-.23.08-.48-.04-.55-.27-.08-.23.04-.48.27-.55.04-.01.08-.01.11-.02l-.51-.38c-.11-.03-.2-.09-.25-.19l-1.02-.77c-.04.11-.13.21-.26.25-.23.08-.47-.04-.55-.27-.06-.18,0-.37.15-.48l-1.71-1.29s-.07.05-.11.07c-.23.08-.48-.04-.55-.27-.04-.1-.03-.2,0-.3l-.15-.12-.37.13-.1.38s.04.06.06.1c.07.21-.03.43-.22.53l-.17.67c.04-.11.13-.21.26-.26.23-.08.48.04.55.27.08.23-.04.48-.27.55s-.48-.04-.55-.27c-.02-.06-.03-.11-.02-.17l-.35,1.34c.11.05.21.13.25.26.08.23-.04.48-.27.55-.07.02-.13.02-.2.02l-.54,2.08c.21-.04.41.07.48.28.08.23-.04.48-.27.55-.15.05-.3.01-.41-.08l-.3,1.16s.02.03.03.05c.07.19-.01.39-.17.5l-.15.58c.05-.06.11-.11.19-.14.23-.08.48.04.55.27.08.23-.04.48-.27.55-.23.08-.47-.04-.55-.27,0-.02,0-.04,0-.06l-.32,1.25c.1.05.18.13.22.25.08.23-.04.48-.27.55-.05.02-.11.02-.16.02l-.17.65,1.66,2.26-.09-2.34,1.39,1.89-.09-2.42,1.44,1.95-.09-2.47,1.46,1.99-.09-2.3,1.36,1.86-.09-2.3,1.37,1.86-.09-2.46,1.46,1.99-.09-2.38,1.41,1.92-.09-2.38,1.06,1.44.3-.82-.04-1.17.32.43.59-1.59ZM351.6,216.28c.08.23-.04.48-.27.55-.23.08-.48-.04-.55-.27s.04-.48.27-.55c.23-.08.47.04.55.27ZM350.61,214.79c.23-.08.48.04.55.27.08.23-.04.48-.27.55s-.48-.04-.55-.27c-.08-.23.04-.48.27-.55ZM350.23,216.76c.08.23-.04.48-.27.55s-.48-.04-.55-.27c-.08-.23.04-.48.27-.55s.48.04.55.27ZM349.8,215.53c.08.23-.04.48-.27.55-.23.08-.47-.04-.55-.27s.04-.48.27-.55c.23-.08.48.04.55.27ZM349.38,214.33c.08.23-.04.48-.27.55s-.48-.04-.55-.27c-.08-.23.04-.48.27-.55.23-.08.48.04.55.27ZM348.59,217.79c-.23.08-.47-.04-.55-.27s.04-.48.27-.55c.23-.08.48.04.55.27s-.04.48-.27.55ZM348.39,212.81c.23-.08.48.04.55.27s-.04.48-.27.55c-.23.08-.47-.04-.55-.27s.04-.48.27-.55ZM348.43,216.01c.08.23-.04.48-.27.55-.23.08-.47-.04-.55-.27s.04-.48.27-.55c.23-.08.48.04.55.27ZM347.45,214.54c.23-.08.48.04.55.27.08.23-.04.48-.27.55-.23.08-.48-.04-.55-.27-.08-.23.04-.48.27-.55ZM347.48,217.69c.08.23-.04.48-.27.55-.23.08-.47-.04-.55-.27s.04-.48.27-.55c.23-.08.48.04.55.27ZM346.5,216.2c.23-.08.48.04.55.27s-.04.48-.27.55-.47-.04-.55-.27.04-.48.27-.55ZM345.75,222.87c-.23.08-.47-.04-.55-.27s.04-.48.27-.55c.23-.08.48.04.55.27s-.04.48-.27.55ZM345.72,219.7c-.08-.23.04-.48.27-.55s.48.04.55.27c.08.23-.04.48-.27.55s-.48-.04-.55-.27ZM346.14,220.91c-.08-.23.04-.48.27-.55.23-.08.48.04.55.27s-.04.48-.27.55c-.23.08-.47-.04-.55-.27ZM347.13,222.42c-.23.08-.47-.04-.55-.27s.04-.48.27-.55c.23-.08.48.04.55.27s-.04.48-.27.55ZM347.09,219.2c-.08-.23.04-.48.27-.55s.48.04.55.27c.08.23-.04.48-.27.55s-.48-.04-.55-.27ZM347.51,220.41c-.08-.23.04-.48.27-.55.23-.08.47.04.55.27s-.04.48-.27.55c-.23.08-.48-.04-.55-.27ZM348.49,221.92c-.23.08-.48-.04-.55-.27-.08-.23.04-.48.27-.55.23-.08.47.04.55.27s-.04.48-.27.55ZM348.46,218.74c-.08-.23.04-.48.27-.55s.48.04.55.27c.08.23-.04.48-.27.55s-.48-.04-.55-.27ZM348.88,219.95c-.08-.23.04-.48.27-.55.23-.08.47.04.55.27s-.04.48-.27.55c-.23.08-.48-.04-.55-.27ZM349.87,221.46c-.23.08-.48-.04-.55-.27s.04-.48.27-.55c.23-.08.47.04.55.27s-.04.48-.27.55ZM349.83,218.27c-.08-.23.04-.48.27-.55.23-.08.47.04.55.27s-.04.48-.27.55c-.23.08-.48-.04-.55-.27ZM350.25,219.47c-.08-.23.04-.48.27-.55.23-.08.47.04.55.27s-.04.48-.27.55c-.23.08-.48-.04-.55-.27ZM351.24,220.98c-.23.08-.48-.04-.55-.27s.04-.48.27-.55c.23-.08.47.04.55.27s-.04.48-.27.55ZM351.2,217.79c-.08-.23.04-.48.27-.55.23-.08.47.04.55.27s-.04.48-.27.55c-.23.08-.48-.04-.55-.27ZM351.62,218.99c-.08-.23.04-.48.27-.55s.48.04.55.27c.08.23-.04.48-.27.55s-.48-.04-.55-.27ZM352.61,220.5c-.23.08-.48-.04-.55-.27-.08-.23.04-.48.27-.55s.48.04.55.27c.08.23-.04.48-.27.55ZM352.56,217.29c-.08-.23.04-.48.27-.55.23-.08.48.04.55.27s-.04.48-.27.55c-.23.08-.47-.04-.55-.27ZM352.98,218.5c-.08-.23.04-.48.27-.55s.48.04.55.27c.08.23-.04.48-.27.55s-.48-.04-.55-.27ZM353.97,220.01c-.23.08-.47-.04-.55-.27-.08-.23.04-.48.27-.55s.48.04.55.27c.08.23-.04.48-.27.55ZM354.35,218.02c-.08-.23.04-.48.27-.55.23-.08.47.04.55.27.08.23-.04.48-.27.55s-.48-.04-.55-.27ZM355.34,219.53c-.23.08-.48-.04-.55-.27-.08-.23.04-.48.27-.55s.48.04.55.27c.08.23-.04.48-.27.55Z"/>
  <path class="cls-1" d="M348.92,235.37s-.04-.05-.05-.08c-.08-.23.04-.48.27-.55s.48.04.55.27c.08.23-.04.48-.27.55-.09.03-.17.02-.26,0l.49.37c.2-.02.39.09.46.28,0,.02,0,.05,0,.07l.43.33.17-.47s-.05-.07-.07-.12c-.08-.23.04-.48.27-.55.02,0,.04,0,.05,0l1.48-3.98-.96-1.31.09,2.47-1.46-1.99.09,2.42-1.44-1.95.09,2.34-1.39-1.89.11,2.8,1.32,1ZM350.51,234.26c.23-.08.48.04.55.27s-.04.48-.27.55c-.23.08-.47-.04-.55-.27s.04-.48.27-.55Z"/>
  <rect class="cls-1" x="347.04" y="210.96" width=".39" height=".87" transform="translate(-50.26 126.19) rotate(-19.23)"/>
  <path class="cls-1" d="M347.16,210.69c-.08-.23.04-.48.27-.55.01,0,.03,0,.04,0l.54-2.12c-.17,0-.33-.12-.39-.29-.08-.23.04-.48.27-.55.11-.04.23-.03.34.02l.33-1.26c-.02-.11.01-.22.08-.31l.15-.59s-.05.04-.09.05c-.23.08-.47-.04-.55-.27s.04-.48.27-.55c.2-.07.42.02.52.21l.3-1.16c-.06-.05-.11-.11-.14-.19-.08-.23.04-.48.27-.55.02,0,.05,0,.07,0l.41-1.61-.82-.61s.03.04.04.07c.08.23-.04.48-.27.55-.23.08-.48-.04-.55-.27s.04-.48.27-.55c.08-.03.17-.02.25,0l-.53-.4c-.18,0-.35-.11-.42-.29,0,0,0-.02,0-.03l-1.03-.77c-.05.1-.13.18-.24.21-.23.08-.48-.04-.55-.27-.06-.17,0-.34.11-.46l-1.71-1.28s-.04.03-.07.04c-.23.08-.48-.04-.55-.27-.03-.08-.02-.16,0-.24l-.96-.72c.03.2-.08.4-.28.47-.23.08-.48-.04-.55-.27-.08-.23.04-.48.27-.55.03,0,.05,0,.08-.01l-.65-.49-.37.13-.23.84c.16.02.3.12.35.28.08.23-.04.48-.27.55-.11.04-.21.03-.31-.01l-.34,1.27c.02.13-.01.26-.1.36l-.16.58s.07-.05.11-.07c.23-.08.48.04.55.27.08.23-.04.48-.27.55-.22.08-.45-.03-.54-.24l-.31,1.16c.07.05.14.12.17.21.08.23-.04.48-.27.55-.04.01-.08.01-.11.02l-.6,2.23c.22-.06.44.06.52.27.08.23-.04.48-.27.55-.16.06-.33,0-.45-.11l-.15.56.45.34c0-.18.11-.35.29-.42.23-.08.47.04.55.27s-.04.48-.27.55c-.01,0-.02,0-.03,0l1.73,1.32c.05-.09.13-.16.23-.19.23-.08.48.04.55.27.06.16,0,.33-.1.44l1.73,1.32s.03-.02.05-.03c.23-.08.48.04.55.27.03.08.02.15,0,.23l.95.72c-.05-.21.06-.44.27-.51.23-.08.48.04.55.27.08.23-.04.48-.27.55-.04.01-.08.02-.13.02l.58.44c.1.03.19.09.25.19l.34.26.37-.13.02-.06c-.05-.05-.1-.1-.12-.17ZM348.93,201.32c.23-.08.48.04.55.27.08.23-.04.48-.27.55s-.48-.04-.55-.27c-.08-.23.04-.48.27-.55ZM347.75,206.74c-.23.08-.47-.04-.55-.27s.04-.48.27-.55.48.04.55.27-.04.48-.27.55ZM347.04,204.71c.23-.08.48.04.55.27s-.04.48-.27.55c-.23.08-.47-.04-.55-.27s.04-.48.27-.55ZM346.35,204.04c-.08-.23.04-.48.27-.55s.48.04.55.27c.08.23-.04.48-.27.55s-.48-.04-.55-.27ZM348.54,203.29c.08.23-.04.48-.27.55s-.48-.04-.55-.27c-.08-.23.04-.48.27-.55s.48.04.55.27ZM348.12,202.07c.08.23-.04.48-.27.55-.23.08-.48-.04-.55-.27s.04-.48.27-.55c.23-.08.47.04.55.27ZM347.7,200.86c.08.23-.04.48-.27.55-.23.08-.48-.04-.55-.27s.04-.48.27-.55c.23-.08.47.04.55.27ZM346.71,199.36c.23-.08.47.04.55.27s-.04.48-.27.55c-.23.08-.48-.04-.55-.27-.08-.23.04-.48.27-.55ZM346.74,202.53c.08.23-.04.48-.27.55-.23.08-.48-.04-.55-.27s.04-.48.27-.55c.23-.08.47.04.55.27ZM346.32,201.32c.08.23-.04.48-.27.55s-.48-.04-.55-.27.04-.48.27-.55c.23-.08.47.04.55.27ZM344.82,202.74c.23-.08.47.04.55.27s-.04.48-.27.55c-.23.08-.48-.04-.55-.27s.04-.48.27-.55ZM344.13,202.09c-.08-.23.04-.48.27-.55.23-.08.48.04.55.27.08.23-.04.48-.27.55s-.48-.04-.55-.27ZM345.24,203.96c.23-.08.47.04.55.27s-.04.48-.27.55c-.23.08-.48-.04-.55-.27s.04-.48.27-.55ZM345.89,200.08c.08.23-.04.48-.27.55-.23.08-.48-.04-.55-.27s.04-.48.27-.55c.23-.08.47.04.55.27ZM345.42,198.75c.08.23-.04.48-.27.55s-.48-.04-.55-.27c-.08-.23.04-.48.27-.55s.48.04.55.27ZM344.44,197.26c.23-.08.47.04.55.27s-.04.48-.27.55c-.23.08-.48-.04-.55-.27s.04-.48.27-.55ZM344.52,200.56c.08.23-.04.48-.27.55s-.48-.04-.55-.27c-.08-.23.04-.48.27-.55s.48.04.55.27ZM343.03,202.01c.23-.08.48.04.55.27s-.04.48-.27.55c-.23.08-.47-.04-.55-.27s.04-.48.27-.55ZM342.33,201.32c-.08-.23.04-.48.27-.55.23-.08.48.04.55.27s-.04.48-.27.55c-.23.08-.47-.04-.55-.27ZM343.45,203.22c.23-.08.48.04.55.27.08.23-.04.48-.27.55s-.48-.04-.55-.27c-.08-.23.04-.48.27-.55ZM344.05,199.23c.08.23-.04.48-.27.55-.23.08-.48-.04-.55-.27s.04-.48.27-.55c.23-.08.47.04.55.27ZM343.63,198.01c.08.23-.04.48-.27.55s-.48-.04-.55-.27c-.08-.23.04-.48.27-.55.23-.08.47.04.55.27ZM342.65,196.53c.23-.08.48.04.55.27.08.23-.04.48-.27.55s-.48-.04-.55-.27c-.08-.23.04-.48.27-.55ZM342.68,199.71c.08.23-.04.48-.27.55s-.48-.04-.55-.27c-.08-.23.04-.48.27-.55s.48.04.55.27ZM342.26,198.48c.08.23-.04.48-.27.55s-.48-.04-.55-.27c-.08-.23.04-.48.27-.55s.48.04.55.27ZM341.52,202.09c-.23.08-.48-.04-.55-.27-.08-.23.04-.48.27-.55s.48.04.55.27c.08.23-.04.48-.27.55ZM341.28,197.01c.23-.08.48.04.55.27s-.04.48-.27.55c-.23.08-.47-.04-.55-.27s.04-.48.27-.55ZM340.77,199.94c.23-.08.48.04.55.27s-.04.48-.27.55c-.23.08-.47-.04-.55-.27s.04-.48.27-.55ZM339.59,202.28c-.08-.23.04-.48.27-.55s.48.04.55.27c.08.23-.04.48-.27.55s-.48-.04-.55-.27ZM340.02,203.52c-.08-.23.04-.48.27-.55.23-.08.48.04.55.27.08.23-.04.48-.27.55-.23.08-.48-.04-.55-.27ZM340.44,204.73c-.08-.23.04-.48.27-.55s.48.04.55.27c.08.23-.04.48-.27.55-.23.08-.48-.04-.55-.27ZM341.42,206.22c-.23.08-.47-.04-.55-.27s.04-.48.27-.55c.23-.08.48.04.55.27s-.04.48-.27.55ZM341.4,203.06c-.08-.23.04-.48.27-.55s.48.04.55.27c.08.23-.04.48-.27.55-.23.08-.48-.04-.55-.27ZM341.82,204.27c-.08-.23.04-.48.27-.55s.48.04.55.27c.08.23-.04.48-.27.55s-.48-.04-.55-.27ZM342.24,205.49c-.08-.23.04-.48.27-.55.23-.08.48.04.55.27s-.04.48-.27.55c-.23.08-.47-.04-.55-.27ZM342.67,206.72c-.08-.23.04-.48.27-.55s.48.04.55.27c.08.23-.04.48-.27.55s-.48-.04-.55-.27ZM343.64,208.19c-.23.08-.48-.04-.55-.27-.08-.23.04-.48.27-.55.23-.08.47.04.55.27.08.23-.04.48-.27.55ZM343.61,205c-.08-.23.04-.48.27-.55.23-.08.47.04.55.27.08.23-.04.48-.27.55s-.48-.04-.55-.27ZM344.03,206.22c-.08-.23.04-.48.27-.55.23-.08.47.04.55.27s-.04.48-.27.55c-.23.08-.48-.04-.55-.27ZM344.45,207.42c-.08-.23.04-.48.27-.55s.48.04.55.27c.08.23-.04.48-.27.55s-.48-.04-.55-.27ZM345.45,208.94c-.23.08-.48-.04-.55-.27s.04-.48.27-.55.47.04.55.27-.04.48-.27.55ZM345.4,205.74c-.08-.23.04-.48.27-.55s.48.04.55.27c.08.23-.04.48-.27.55s-.48-.04-.55-.27ZM345.82,206.95c-.08-.23.04-.48.27-.55.23-.08.48.04.55.27s-.04.48-.27.55c-.23.08-.47-.04-.55-.27ZM346.26,208.2c-.08-.23.04-.48.27-.55s.48.04.55.27c.08.23-.04.48-.27.55s-.48-.04-.55-.27ZM346.68,209.4c-.08-.23.04-.48.27-.55.23-.08.48.04.55.27s-.04.48-.27.55c-.23.08-.47-.04-.55-.27Z"/>
  <g>
    <path class="cls-1" d="M341.21,193.56c-.08-.23.04-.48.27-.55.04-.01.09-.02.13-.02l.53-2.08c-.18,0-.36-.1-.42-.29-.08-.23.04-.48.27-.55.12-.04.25-.02.36.04l.32-1.24c-.01-.11.01-.22.08-.31l.16-.62s-.06.05-.1.06c-.23.08-.48-.04-.55-.27-.08-.23.04-.48.27-.55.21-.07.43.03.53.22l.3-1.17c-.07-.05-.12-.11-.15-.2-.08-.23.04-.48.27-.55.03,0,.05,0,.08-.01l.53-2.06c-.21.05-.44-.06-.51-.27-.08-.23.04-.48.27-.55.16-.05.32-.01.43.09l.22-.85-1.66-2.26.09,2.47-1.46-1.99.09,2.38-1.41-1.92.09,2.38-1.41-1.92.09,2.46-1.46-1.99.09,2.3-1.37-1.86.09,2.3-1.36-1.86.09,2.47-1.46-1.99.09,2.42-1.44-1.95.09,2.34-1.39-1.89.11,2.8.53.4s.09-.06.14-.08c.23-.08.48.04.55.27.04.11.03.23-.02.33l1.03.78s-.03-.03-.03-.06c-.08-.23.04-.48.27-.55s.48.04.55.27c.08.23-.04.48-.27.55-.08.03-.16.02-.23,0l.48.36c.19-.01.38.09.44.28,0,.02,0,.04,0,.06l.95.72c.03-.14.13-.27.27-.32.23-.08.48.04.55.27.07.2-.02.42-.21.52l1.71,1.29s.1-.09.16-.11c.23-.08.47.04.55.27.04.12.02.25-.04.36l1.1.83s-.07-.09-.09-.15c-.08-.23.04-.48.27-.55s.48.04.55.27c.08.23-.04.48-.27.55-.13.05-.26.02-.37-.05l.56.42c.21-.04.43.07.5.28.01.04.01.08.02.11l.31.23.37-.13.05-.19c-.08-.05-.16-.13-.19-.23ZM333.31,187.2c-.23.08-.48-.04-.55-.27-.08-.23.04-.48.27-.55.23-.08.47.04.55.27.08.23-.04.48-.27.55ZM341.86,189.69c-.23.08-.47-.04-.55-.27s.04-.48.27-.55c.23-.08.48.04.55.27s-.04.48-.27.55ZM340.88,188.19c-.08-.23.04-.48.27-.55s.48.04.55.27c.08.23-.04.48-.27.55-.23.08-.48-.04-.55-.27ZM340.91,191.37c-.23.08-.47-.04-.55-.27-.08-.23.04-.48.27-.55.23-.08.48.04.55.27s-.04.48-.27.55ZM343.6,184.54c.08.23-.04.48-.27.55s-.48-.04-.55-.27c-.08-.23.04-.48.27-.55s.48.04.55.27ZM342.61,183.03c.23-.08.48.04.55.27.08.23-.04.48-.27.55s-.48-.04-.55-.27c-.08-.23.04-.48.27-.55ZM342.65,186.22c.08.23-.04.48-.27.55s-.48-.04-.55-.27c-.08-.23.04-.48.27-.55s.48.04.55.27ZM342.23,185.02c.08.23-.04.48-.27.55-.23.08-.48-.04-.55-.27s.04-.48.27-.55c.23-.08.47.04.55.27ZM341.24,183.51c.23-.08.47.04.55.27s-.04.48-.27.55c-.23.08-.48-.04-.55-.27s.04-.48.27-.55ZM341.27,186.68c.08.23-.04.48-.27.55s-.48-.04-.55-.27c-.08-.23.04-.48.27-.55s.48.04.55.27ZM340.85,185.48c.08.23-.04.48-.27.55-.23.08-.48-.04-.55-.27s.04-.48.27-.55c.23-.08.47.04.55.27ZM339.86,183.97c.23-.08.47.04.55.27s-.04.48-.27.55c-.23.08-.48-.04-.55-.27s.04-.48.27-.55ZM339.9,187.16c.08.23-.04.48-.27.55-.23.08-.48-.04-.55-.27s.04-.48.27-.55c.23-.08.47.04.55.27ZM339.48,185.96c.08.23-.04.48-.27.55s-.48-.04-.55-.27c-.08-.23.04-.48.27-.55s.48.04.55.27ZM338.49,184.45c.23-.08.48.04.55.27.08.23-.04.48-.27.55s-.48-.04-.55-.27c-.08-.23.04-.48.27-.55ZM338.11,186.43c.08.23-.04.48-.27.55-.23.08-.47-.04-.55-.27s.04-.48.27-.55c.23-.08.48.04.55.27ZM337.12,184.93c.23-.08.48.04.55.27.08.23-.04.48-.27.55-.23.08-.47-.04-.55-.27-.08-.23.04-.48.27-.55ZM334.12,186.44c-.08-.23.04-.48.27-.55s.48.04.55.27c.08.23-.04.48-.27.55s-.48-.04-.55-.27ZM334.55,187.68c-.08-.23.04-.48.27-.55s.48.04.55.27c.08.23-.04.48-.27.55s-.48-.04-.55-.27ZM335.52,189.15c-.23.08-.47-.04-.55-.27s.04-.48.27-.55c.23-.08.48.04.55.27s-.04.48-.27.55ZM335.49,185.98c-.08-.23.04-.48.27-.55s.48.04.55.27c.08.23-.04.48-.27.55s-.48-.04-.55-.27ZM335.93,187.22c-.08-.23.04-.48.27-.55s.48.04.55.27c.08.23-.04.48-.27.55s-.48-.04-.55-.27ZM336.35,188.42c-.08-.23.04-.48.27-.55.23-.08.48.04.55.27s-.04.48-.27.55c-.23.08-.47-.04-.55-.27ZM336.77,189.65c-.08-.23.04-.48.27-.55.23-.08.48.04.55.27s-.04.48-.27.55c-.23.08-.47-.04-.55-.27ZM337.75,191.14c-.23.08-.48-.04-.55-.27-.08-.23.04-.48.27-.55s.48.04.55.27c.08.23-.04.48-.27.55ZM337.71,187.93c-.08-.23.04-.48.27-.55s.48.04.55.27c.08.23-.04.48-.27.55s-.48-.04-.55-.27ZM338.14,189.15c-.08-.23.04-.48.27-.55.23-.08.47.04.55.27.08.23-.04.48-.27.55-.23.08-.48-.04-.55-.27ZM338.56,190.37c-.08-.23.04-.48.27-.55s.48.04.55.27c.08.23-.04.48-.27.55-.23.08-.48-.04-.55-.27ZM339.54,191.85c-.23.08-.48-.04-.55-.27-.08-.23.04-.48.27-.55s.48.04.55.27c.08.23-.04.48-.27.55ZM339.51,188.67c-.08-.23.04-.48.27-.55s.48.04.55.27c.08.23-.04.48-.27.55-.23.08-.48-.04-.55-.27ZM339.93,189.9c-.08-.23.04-.48.27-.55s.48.04.55.27c.08.23-.04.48-.27.55s-.48-.04-.55-.27ZM340.41,193.17l-.14-.41.37-.13.14.41-.37.13ZM340.79,192.35c-.08-.23.04-.48.27-.55.23-.08.48.04.55.27.08.23-.04.48-.27.55s-.48-.04-.55-.27Z"/>
    <rect class="cls-1" x="340.33" y="192.68" width=".39" height=".44" transform="translate(-44.54 122.93) rotate(-19.23)"/>
  </g>
  <polygon class="cls-1" points="293.05 101.07 291.72 101.07 344.61 252.83 345.28 250.78 293.05 101.07"/>
  <path class="cls-1" d="M301.05,101.07h-6.67l51.62,147.96,3.42-9.3-48.38-138.66ZM297.36,103.91l-.74-2.13,1.92.52,1.92.52-1.17,1.6-1.17,1.6-.74-2.13ZM299.02,108.68l-.74-2.13,1.92.52,1.92.52-1.17,1.6-1.17,1.6-.74-2.13ZM300.72,113.54l-.74-2.13,1.92.52,1.92.52-1.17,1.6-1.17,1.6-.74-2.13ZM302.45,118.5l-.74-2.13,1.92.52,1.92.52-1.17,1.6-1.17,1.6-.74-2.13ZM304.14,123.34l-.74-2.13,1.92.52,1.92.52-1.17,1.6-1.17,1.6-.74-2.13ZM305.86,128.29l-.74-2.13,1.92.52,1.92.52-1.17,1.6-1.17,1.6-.74-2.13ZM307.57,133.18l-.74-2.13,1.92.52,1.92.52-1.17,1.6-1.17,1.6-.74-2.13ZM309.3,138.13l-.74-2.13,1.92.52,1.92.52-1.17,1.6-1.17,1.6-.74-2.13ZM311,143.02l-.74-2.13,1.92.52,1.92.52-1.17,1.6-1.17,1.6-.74-2.13ZM312.71,147.9l-.74-2.13,1.92.52,1.92.52-1.17,1.6-1.17,1.6-.74-2.13ZM314.44,152.86l-.74-2.13,1.92.52,1.92.52-1.17,1.6-1.17,1.6-.74-2.13ZM316.12,157.7l-.74-2.13,1.92.52,1.92.52-1.17,1.6-1.17,1.6-.74-2.13ZM317.85,162.65l-.74-2.13,1.92.52,1.92.52-1.17,1.6-1.17,1.6-.74-2.13ZM319.57,167.58l-.74-2.13,1.92.52,1.92.52-1.17,1.6-1.17,1.6-.74-2.13ZM321.29,172.51l-.74-2.13,1.92.52,1.92.52-1.17,1.6-1.17,1.6-.74-2.13ZM323,177.4l-.74-2.13,1.92.52,1.92.52-1.17,1.6-1.17,1.6-.74-2.13ZM324.69,182.26l-.74-2.13,1.92.52,1.92.52-1.17,1.6-1.17,1.6-.74-2.13ZM326.42,187.22l-.74-2.13,1.92.52,1.92.52-1.17,1.6-1.17,1.6-.74-2.13ZM328.1,192.03l-.74-2.13,1.92.52,1.92.52-1.17,1.6-1.17,1.6-.74-2.13ZM329.87,197.03l-.74-2.13,1.92.52,1.92.52-1.17,1.6-1.17,1.6-.74-2.13ZM331.54,201.79l-.74-2.13,1.92.52,1.92.52-1.17,1.6-1.17,1.6-.74-2.13ZM333.23,206.66l-.74-2.13,1.92.52,1.92.52-1.17,1.6-1.17,1.6-.74-2.13ZM334.96,211.61l-.74-2.13,1.92.52,1.92.52-1.17,1.6-1.17,1.6-.74-2.13ZM336.65,216.45l-.74-2.13,1.92.52,1.92.52-1.17,1.6-1.17,1.6-.74-2.13ZM338.38,221.41l-.74-2.13,1.92.52,1.92.52-1.17,1.6-1.17,1.6-.74-2.13ZM340.08,226.29l-.74-2.13,1.92.52,1.92.52-1.17,1.6-1.17,1.6-.74-2.13ZM341.81,231.25l-.74-2.13,1.92.52,1.92.52-1.17,1.6-1.17,1.6-.74-2.13ZM343.52,236.13l-.74-2.13,1.92.52,1.92.52-1.17,1.6-1.17,1.6-.74-2.13ZM345.96,243.14l-.74-2.13-.74-2.13,1.92.52,1.92.52-1.17,1.6-1.17,1.6Z"/>
  <g>
    <polygon class="cls-1" points="333.99 193.81 333.61 194.38 332.95 194.17 333.33 193.6 333.99 193.81"/>
    <polygon class="cls-1" points="333.63 192.79 333.25 193.36 332.59 193.15 332.98 192.58 333.63 192.79"/>
    <polygon class="cls-1" points="334.31 194.72 333.92 195.29 333.27 195.08 333.65 194.51 334.31 194.72"/>
    <polygon class="cls-1" points="332.92 190.75 332.54 191.33 331.88 191.12 332.27 190.54 332.92 190.75"/>
    <polygon class="cls-1" points="332.57 189.73 332.18 190.31 331.53 190.1 331.91 189.52 332.57 189.73"/>
    <polygon class="cls-1" points="333.28 191.77 332.89 192.34 332.24 192.13 332.62 191.56 333.28 191.77"/>
    <polygon class="cls-1" points="331.86 187.7 331.47 188.27 330.82 188.06 331.2 187.49 331.86 187.7"/>
    <polygon class="cls-1" points="331.5 186.68 331.12 187.25 330.46 187.04 330.84 186.47 331.5 186.68"/>
    <polygon class="cls-1" points="332.21 188.72 331.83 189.29 331.17 189.08 331.56 188.51 332.21 188.72"/>
    <polygon class="cls-1" points="330.79 184.64 330.41 185.22 329.75 185.01 330.13 184.43 330.79 184.64"/>
    <polygon class="cls-1" points="330.44 183.63 330.05 184.2 329.39 183.99 329.78 183.42 330.44 183.63"/>
    <polygon class="cls-1" points="331.15 185.66 330.76 186.24 330.11 186.03 330.49 185.45 331.15 185.66"/>
    <polygon class="cls-1" points="329.73 181.59 329.34 182.16 328.68 181.95 329.07 181.38 329.73 181.59"/>
    <polygon class="cls-1" points="329.37 180.57 328.99 181.15 328.33 180.94 328.71 180.36 329.37 180.57"/>
    <polygon class="cls-1" points="330.08 182.61 329.7 183.18 329.04 182.97 329.42 182.4 330.08 182.61"/>
    <polygon class="cls-1" points="328.66 178.54 328.28 179.11 327.62 178.9 328 178.32 328.66 178.54"/>
    <polygon class="cls-1" points="328.31 177.52 327.92 178.09 327.26 177.88 327.65 177.31 328.31 177.52"/>
    <polygon class="cls-1" points="329.02 179.55 328.63 180.13 327.97 179.92 328.36 179.34 329.02 179.55"/>
    <polygon class="cls-1" points="327.6 175.48 327.21 176.06 326.55 175.84 326.94 175.27 327.6 175.48"/>
    <polygon class="cls-1" points="327.24 174.46 326.86 175.04 326.2 174.83 326.58 174.25 327.24 174.46"/>
    <polygon class="cls-1" points="327.95 176.5 327.57 177.07 326.91 176.86 327.29 176.29 327.95 176.5"/>
    <polygon class="cls-1" points="326.53 172.43 326.15 173 325.49 172.79 325.87 172.22 326.53 172.43"/>
    <polygon class="cls-1" points="326.17 171.41 325.79 171.98 325.13 171.77 325.52 171.2 326.17 171.41"/>
    <polygon class="cls-1" points="326.89 173.44 326.5 174.02 325.84 173.81 326.23 173.23 326.89 173.44"/>
    <polygon class="cls-1" points="325.46 169.37 325.08 169.95 324.42 169.74 324.81 169.16 325.46 169.37"/>
    <polygon class="cls-1" points="325.11 168.35 324.72 168.93 324.07 168.72 324.45 168.14 325.11 168.35"/>
    <polygon class="cls-1" points="325.82 170.39 325.44 170.96 324.78 170.75 325.16 170.18 325.82 170.39"/>
    <polygon class="cls-1" points="324.4 166.32 324.01 166.89 323.36 166.68 323.74 166.11 324.4 166.32"/>
    <polygon class="cls-1" points="324.04 165.3 323.66 165.87 323 165.66 323.39 165.09 324.04 165.3"/>
    <polygon class="cls-1" points="324.75 167.34 324.37 167.91 323.71 167.7 324.1 167.13 324.75 167.34"/>
    <polygon class="cls-1" points="323.33 163.26 322.95 163.84 322.29 163.63 322.67 163.05 323.33 163.26"/>
    <polygon class="cls-1" points="322.98 162.25 322.59 162.82 321.94 162.61 322.32 162.03 322.98 162.25"/>
    <polygon class="cls-1" points="323.69 164.28 323.3 164.86 322.65 164.65 323.03 164.07 323.69 164.28"/>
    <polygon class="cls-1" points="322.27 160.21 321.88 160.78 321.22 160.57 321.61 160 322.27 160.21"/>
    <polygon class="cls-1" points="321.91 159.19 321.53 159.77 320.87 159.55 321.25 158.98 321.91 159.19"/>
    <polygon class="cls-1" points="322.62 161.23 322.24 161.8 321.58 161.59 321.96 161.02 322.62 161.23"/>
    <polygon class="cls-1" points="321.2 157.15 320.82 157.73 320.16 157.52 320.54 156.94 321.2 157.15"/>
    <polygon class="cls-1" points="320.85 156.14 320.46 156.71 319.8 156.5 320.19 155.93 320.85 156.14"/>
    <polygon class="cls-1" points="321.56 158.17 321.17 158.75 320.51 158.54 320.9 157.96 321.56 158.17"/>
    <polygon class="cls-1" points="320.14 154.1 319.75 154.67 319.09 154.46 319.48 153.89 320.14 154.1"/>
    <polygon class="cls-1" points="319.78 153.08 319.4 153.66 318.74 153.45 319.12 152.87 319.78 153.08"/>
    <polygon class="cls-1" points="320.49 155.12 320.11 155.69 319.45 155.48 319.83 154.91 320.49 155.12"/>
    <polygon class="cls-1" points="319.07 151.05 318.69 151.62 318.03 151.41 318.41 150.84 319.07 151.05"/>
    <polygon class="cls-1" points="318.71 150.03 318.33 150.6 317.67 150.39 318.06 149.82 318.71 150.03"/>
    <polygon class="cls-1" points="319.43 152.06 319.04 152.64 318.38 152.43 318.77 151.85 319.43 152.06"/>
    <polygon class="cls-1" points="349.24 237.4 348.86 237.97 348.2 237.76 348.58 237.19 349.24 237.4"/>
    <polygon class="cls-1" points="348.89 236.38 348.5 236.96 347.84 236.74 348.23 236.17 348.89 236.38"/>
    <polygon class="cls-1" points="349.56 238.31 349.18 238.89 348.52 238.67 348.9 238.1 349.56 238.31"/>
    <polygon class="cls-1" points="348.18 234.34 347.79 234.92 347.13 234.71 347.52 234.13 348.18 234.34"/>
    <polygon class="cls-1" points="347.82 233.33 347.44 233.9 346.78 233.69 347.16 233.12 347.82 233.33"/>
    <polygon class="cls-1" points="348.53 235.36 348.15 235.94 347.49 235.73 347.87 235.15 348.53 235.36"/>
    <polygon class="cls-1" points="347.11 231.29 346.73 231.86 346.07 231.65 346.45 231.08 347.11 231.29"/>
    <polygon class="cls-1" points="346.75 230.27 346.37 230.85 345.71 230.64 346.1 230.06 346.75 230.27"/>
    <polygon class="cls-1" points="347.47 232.31 347.08 232.88 346.42 232.67 346.81 232.1 347.47 232.31"/>
    <polygon class="cls-1" points="346.04 228.24 345.66 228.81 345 228.6 345.39 228.03 346.04 228.24"/>
    <polygon class="cls-1" points="345.69 227.22 345.3 227.79 344.65 227.58 345.03 227.01 345.69 227.22"/>
    <polygon class="cls-1" points="346.4 229.25 346.02 229.83 345.36 229.62 345.74 229.04 346.4 229.25"/>
    <polygon class="cls-1" points="344.98 225.18 344.59 225.76 343.94 225.55 344.32 224.97 344.98 225.18"/>
    <polygon class="cls-1" points="344.62 224.16 344.24 224.74 343.58 224.53 343.97 223.95 344.62 224.16"/>
    <polygon class="cls-1" points="345.33 226.2 344.95 226.77 344.29 226.56 344.68 225.99 345.33 226.2"/>
    <polygon class="cls-1" points="343.91 222.13 343.53 222.7 342.87 222.49 343.25 221.92 343.91 222.13"/>
    <polygon class="cls-1" points="343.56 221.11 343.17 221.68 342.52 221.47 342.9 220.9 343.56 221.11"/>
    <polygon class="cls-1" points="344.27 223.15 343.88 223.72 343.23 223.51 343.61 222.94 344.27 223.15"/>
    <polygon class="cls-1" points="342.85 219.07 342.46 219.65 341.8 219.44 342.19 218.86 342.85 219.07"/>
    <polygon class="cls-1" points="342.49 218.06 342.11 218.63 341.45 218.42 341.83 217.84 342.49 218.06"/>
    <polygon class="cls-1" points="343.2 220.09 342.82 220.67 342.16 220.46 342.54 219.88 343.2 220.09"/>
    <polygon class="cls-1" points="341.78 216.02 341.4 216.59 340.74 216.38 341.12 215.81 341.78 216.02"/>
    <polygon class="cls-1" points="341.43 215 341.04 215.57 340.38 215.36 340.77 214.79 341.43 215"/>
    <polygon class="cls-1" points="342.14 217.04 341.75 217.61 341.09 217.4 341.48 216.83 342.14 217.04"/>
    <polygon class="cls-1" points="340.72 212.96 340.33 213.54 339.67 213.33 340.06 212.75 340.72 212.96"/>
    <polygon class="cls-1" points="340.36 211.95 339.98 212.52 339.32 212.31 339.7 211.74 340.36 211.95"/>
    <polygon class="cls-1" points="341.07 213.98 340.69 214.56 340.03 214.35 340.41 213.77 341.07 213.98"/>
    <polygon class="cls-1" points="339.65 209.91 339.27 210.48 338.61 210.27 338.99 209.7 339.65 209.91"/>
    <polygon class="cls-1" points="339.29 208.89 338.91 209.47 338.25 209.26 338.64 208.68 339.29 208.89"/>
    <polygon class="cls-1" points="340.01 210.93 339.62 211.5 338.96 211.29 339.35 210.72 340.01 210.93"/>
    <polygon class="cls-1" points="338.58 206.86 338.2 207.43 337.54 207.22 337.93 206.65 338.58 206.86"/>
    <polygon class="cls-1" points="338.23 205.84 337.84 206.41 337.19 206.2 337.57 205.63 338.23 205.84"/>
    <polygon class="cls-1" points="338.94 207.87 338.56 208.45 337.9 208.24 338.28 207.66 338.94 207.87"/>
    <polygon class="cls-1" points="337.52 203.8 337.13 204.38 336.48 204.17 336.86 203.59 337.52 203.8"/>
    <polygon class="cls-1" points="337.16 202.78 336.78 203.36 336.12 203.15 336.51 202.57 337.16 202.78"/>
    <polygon class="cls-1" points="337.87 204.82 337.49 205.39 336.83 205.18 337.22 204.61 337.87 204.82"/>
    <polygon class="cls-1" points="336.45 200.75 336.07 201.32 335.41 201.11 335.79 200.54 336.45 200.75"/>
    <polygon class="cls-1" points="336.1 199.73 335.71 200.3 335.06 200.09 335.44 199.52 336.1 199.73"/>
    <polygon class="cls-1" points="336.81 201.77 336.42 202.34 335.77 202.13 336.15 201.55 336.81 201.77"/>
    <polygon class="cls-1" points="335.39 197.69 335 198.27 334.34 198.06 334.73 197.48 335.39 197.69"/>
    <polygon class="cls-1" points="335.03 196.67 334.65 197.25 333.99 197.04 334.37 196.46 335.03 196.67"/>
    <polygon class="cls-1" points="335.74 198.71 335.36 199.29 334.7 199.07 335.08 198.5 335.74 198.71"/>
    <polygon class="cls-1" points="334.68 195.66 334.29 196.23 333.63 196.02 334.02 195.45 334.68 195.66"/>
    <polygon class="cls-1" points="318 147.99 317.62 148.57 316.96 148.36 317.35 147.78 318 147.99"/>
    <polygon class="cls-1" points="317.65 146.97 317.26 147.55 316.61 147.34 316.99 146.76 317.65 146.97"/>
    <polygon class="cls-1" points="318.36 149.01 317.98 149.58 317.32 149.37 317.7 148.8 318.36 149.01"/>
    <polygon class="cls-1" points="316.94 144.94 316.55 145.51 315.9 145.3 316.28 144.73 316.94 144.94"/>
    <polygon class="cls-1" points="316.58 143.92 316.2 144.49 315.54 144.28 315.93 143.71 316.58 143.92"/>
    <polygon class="cls-1" points="317.29 145.96 316.91 146.53 316.25 146.32 316.64 145.74 317.29 145.96"/>
    <polygon class="cls-1" points="315.87 141.88 315.49 142.46 314.83 142.25 315.21 141.67 315.87 141.88"/>
    <polygon class="cls-1" points="315.52 140.86 315.13 141.44 314.48 141.23 314.86 140.65 315.52 140.86"/>
    <polygon class="cls-1" points="316.23 142.9 315.84 143.48 315.19 143.26 315.57 142.69 316.23 142.9"/>
    <polygon class="cls-1" points="314.81 138.83 314.42 139.4 313.76 139.19 314.15 138.62 314.81 138.83"/>
    <polygon class="cls-1" points="314.45 137.81 314.07 138.38 313.41 138.17 313.79 137.6 314.45 137.81"/>
    <polygon class="cls-1" points="315.16 139.85 314.78 140.42 314.12 140.21 314.5 139.64 315.16 139.85"/>
    <polygon class="cls-1" points="313.74 135.77 313.36 136.35 312.7 136.14 313.08 135.56 313.74 135.77"/>
    <polygon class="cls-1" points="313.39 134.76 313 135.33 312.34 135.12 312.73 134.55 313.39 134.76"/>
    <polygon class="cls-1" points="314.1 136.79 313.71 137.37 313.05 137.16 313.44 136.58 314.1 136.79"/>
    <polygon class="cls-1" points="312.68 132.72 312.29 133.29 311.63 133.08 312.02 132.51 312.68 132.72"/>
    <polygon class="cls-1" points="312.32 131.7 311.94 132.28 311.28 132.07 311.66 131.49 312.32 131.7"/>
    <polygon class="cls-1" points="313.03 133.74 312.65 134.31 311.99 134.1 312.37 133.53 313.03 133.74"/>
    <polygon class="cls-1" points="311.61 129.67 311.23 130.24 310.57 130.03 310.95 129.45 311.61 129.67"/>
    <polygon class="cls-1" points="311.26 128.65 310.87 129.22 310.21 129.01 310.6 128.44 311.26 128.65"/>
    <polygon class="cls-1" points="311.97 130.68 311.58 131.26 310.92 131.05 311.31 130.47 311.97 130.68"/>
    <polygon class="cls-1" points="310.54 126.61 310.16 127.19 309.5 126.97 309.89 126.4 310.54 126.61"/>
    <polygon class="cls-1" points="310.19 125.59 309.81 126.17 309.15 125.96 309.53 125.38 310.19 125.59"/>
    <polygon class="cls-1" points="310.9 127.63 310.52 128.2 309.86 127.99 310.24 127.42 310.9 127.63"/>
    <polygon class="cls-1" points="309.48 123.56 309.09 124.13 308.44 123.92 308.82 123.35 309.48 123.56"/>
    <polygon class="cls-1" points="309.12 122.54 308.74 123.11 308.08 122.9 308.47 122.33 309.12 122.54"/>
    <polygon class="cls-1" points="309.83 124.57 309.45 125.15 308.79 124.94 309.18 124.36 309.83 124.57"/>
    <polygon class="cls-1" points="308.41 120.5 308.03 121.08 307.37 120.87 307.76 120.29 308.41 120.5"/>
    <polygon class="cls-1" points="308.06 119.48 307.67 120.06 307.02 119.85 307.4 119.27 308.06 119.48"/>
    <polygon class="cls-1" points="308.77 121.52 308.38 122.09 307.73 121.88 308.11 121.31 308.77 121.52"/>
    <polygon class="cls-1" points="307.35 117.45 306.96 118.02 306.31 117.81 306.69 117.24 307.35 117.45"/>
    <polygon class="cls-1" points="306.99 116.43 306.61 117 305.95 116.79 306.33 116.22 306.99 116.43"/>
    <polygon class="cls-1" points="307.7 118.47 307.32 119.04 306.66 118.83 307.04 118.26 307.7 118.47"/>
    <polygon class="cls-1" points="306.28 114.39 305.9 114.97 305.24 114.76 305.62 114.18 306.28 114.39"/>
    <polygon class="cls-1" points="305.93 113.38 305.54 113.95 304.88 113.74 305.27 113.17 305.93 113.38"/>
    <polygon class="cls-1" points="306.64 115.41 306.25 115.99 305.59 115.78 305.98 115.2 306.64 115.41"/>
    <polygon class="cls-1" points="305.22 111.34 304.83 111.91 304.17 111.7 304.56 111.13 305.22 111.34"/>
    <polygon class="cls-1" points="304.86 110.32 304.48 110.9 303.82 110.68 304.2 110.11 304.86 110.32"/>
    <polygon class="cls-1" points="305.57 112.36 305.19 112.93 304.53 112.72 304.91 112.15 305.57 112.36"/>
    <polygon class="cls-1" points="304.15 108.28 303.77 108.86 303.11 108.65 303.49 108.07 304.15 108.28"/>
    <polygon class="cls-1" points="303.8 107.27 303.41 107.84 302.75 107.63 303.14 107.06 303.8 107.27"/>
    <polygon class="cls-1" points="304.51 109.3 304.12 109.88 303.46 109.67 303.85 109.09 304.51 109.3"/>
    <polygon class="cls-1" points="303.08 105.23 302.7 105.8 302.04 105.59 302.43 105.02 303.08 105.23"/>
    <polygon class="cls-1" points="302.73 104.21 302.35 104.79 301.69 104.58 302.07 104 302.73 104.21"/>
    <polygon class="cls-1" points="303.44 106.25 303.06 106.82 302.4 106.61 302.78 106.04 303.44 106.25"/>
    <polygon class="cls-1" points="302.02 102.18 301.63 102.75 300.98 102.54 301.36 101.97 302.02 102.18"/>
    <polygon class="cls-1" points="302.37 103.19 301.99 103.77 301.33 103.56 301.72 102.98 302.37 103.19"/>
  </g>
  <polygon class="cls-1" points="325.58 101.07 324.25 101.07 361.37 207.47 362.07 205.64 325.58 101.07"/>
  <path class="cls-1" d="M322.92,101.07h-1.99l.04.12.74,2.13-1.92-.52-1.92-.52.88-1.2h-2.51l40.99,117.47,3.42-9.3-37.74-108.17ZM320.79,105.62l1.17-1.6.74,2.13.74,2.13-1.92-.52-1.92-.52,1.17-1.6ZM322.48,110.48l1.17-1.6.74,2.13.74,2.13-1.92-.52-1.92-.52,1.17-1.6ZM324.19,115.37l1.17-1.6.74,2.13.74,2.13-1.92-.52-1.92-.52,1.17-1.6ZM325.91,120.3l1.17-1.6.74,2.13.74,2.13-1.92-.52-1.92-.52,1.17-1.6ZM327.63,125.23l1.17-1.6.74,2.13.74,2.13-1.92-.52-1.92-.52,1.17-1.6ZM329.36,130.19l1.17-1.6.74,2.13.74,2.13-1.92-.52-1.92-.52,1.17-1.6ZM331.04,135.03l1.17-1.6.74,2.13.74,2.13-1.92-.52-1.92-.52,1.17-1.6ZM332.77,139.98l1.17-1.6.74,2.13.74,2.13-1.92-.52-1.92-.52,1.17-1.6ZM334.48,144.87l1.17-1.6.74,2.13.74,2.13-1.92-.52-1.92-.52,1.17-1.6ZM336.18,149.75l1.17-1.6.74,2.13.74,2.13-1.92-.52-1.92-.52,1.17-1.6ZM337.91,154.71l1.17-1.6.74,2.13.74,2.13-1.92-.52-1.92-.52,1.17-1.6ZM339.62,159.59l1.17-1.6.74,2.13.74,2.13-1.92-.52-1.92-.52,1.17-1.6ZM341.34,164.55l1.17-1.6.74,2.13.74,2.13-1.92-.52-1.92-.52,1.17-1.6ZM343.03,169.38l1.17-1.6.74,2.13.74,2.13-1.92-.52-1.92-.52,1.17-1.6ZM344.76,174.34l1.17-1.6.74,2.13.74,2.13-1.92-.52-1.92-.52,1.17-1.6ZM346.46,179.2l1.17-1.6.74,2.13.74,2.13-1.92-.52-1.92-.52,1.17-1.6ZM348.12,183.97l1.17-1.6.74,2.13.74,2.13-1.92-.52-1.92-.52,1.17-1.6ZM349.83,188.67l1.17-1.6.74,2.13.74,2.13-1.92-.52-1.92-.52,1.17-1.6ZM351.54,193.55l1.17-1.6.74,2.13.74,2.13-1.92-.52-1.92-.52,1.17-1.6ZM353.26,198.51l1.17-1.6.74,2.13.74,2.13-1.92-.52-1.92-.52,1.17-1.6ZM354.95,203.35l1.17-1.6.74,2.13.74,2.13-1.92-.52-1.92-.52,1.17-1.6ZM355.51,209.9l1.17-1.6,1.17-1.6.74,2.13.74,2.13-1.92-.52-1.92-.52Z"/>
  <g>
    <polygon class="cls-1" points="315.89 101.73 316.28 101.15 316.94 101.36 316.55 101.94 315.89 101.73"/>
    <polygon class="cls-1" points="316.6 103.76 316.99 103.19 317.65 103.4 317.26 103.97 316.6 103.76"/>
    <polygon class="cls-1" points="316.96 104.78 317.34 104.21 318 104.42 317.62 104.99 316.96 104.78"/>
    <polygon class="cls-1" points="316.25 102.74 316.63 102.17 317.29 102.38 316.91 102.95 316.25 102.74"/>
    <polygon class="cls-1" points="317.67 106.82 318.05 106.24 318.71 106.45 318.33 107.03 317.67 106.82"/>
    <polygon class="cls-1" points="318.02 107.84 318.41 107.26 319.07 107.47 318.68 108.05 318.02 107.84"/>
    <polygon class="cls-1" points="317.31 105.8 317.7 105.22 318.36 105.44 317.97 106.01 317.31 105.8"/>
    <polygon class="cls-1" points="318.74 109.87 319.12 109.3 319.78 109.51 319.39 110.08 318.74 109.87"/>
    <polygon class="cls-1" points="319.09 110.89 319.47 110.32 320.13 110.53 319.75 111.1 319.09 110.89"/>
    <polygon class="cls-1" points="318.38 108.85 318.76 108.28 319.42 108.49 319.04 109.06 318.38 108.85"/>
    <polygon class="cls-1" points="319.8 112.93 320.19 112.35 320.84 112.56 320.46 113.14 319.8 112.93"/>
    <polygon class="cls-1" points="320.16 113.94 320.54 113.37 321.2 113.58 320.81 114.15 320.16 113.94"/>
    <polygon class="cls-1" points="319.45 111.91 319.83 111.33 320.49 111.54 320.1 112.12 319.45 111.91"/>
    <polygon class="cls-1" points="320.87 115.98 321.25 115.41 321.91 115.62 321.52 116.19 320.87 115.98"/>
    <polygon class="cls-1" points="321.22 117 321.61 116.42 322.26 116.63 321.88 117.21 321.22 117"/>
    <polygon class="cls-1" points="320.51 114.96 320.9 114.39 321.55 114.6 321.17 115.17 320.51 114.96"/>
    <polygon class="cls-1" points="321.93 119.03 322.32 118.46 322.97 118.67 322.59 119.24 321.93 119.03"/>
    <polygon class="cls-1" points="322.29 120.05 322.67 119.48 323.33 119.69 322.95 120.26 322.29 120.05"/>
    <polygon class="cls-1" points="321.58 118.02 321.96 117.44 322.62 117.65 322.24 118.23 321.58 118.02"/>
    <polygon class="cls-1" points="323 122.09 323.38 121.51 324.04 121.72 323.66 122.3 323 122.09"/>
    <polygon class="cls-1" points="323.35 123.11 323.74 122.53 324.4 122.74 324.01 123.32 323.35 123.11"/>
    <polygon class="cls-1" points="322.64 121.07 323.03 120.5 323.69 120.71 323.3 121.28 322.64 121.07"/>
    <polygon class="cls-1" points="324.06 125.14 324.45 124.57 325.11 124.78 324.72 125.35 324.06 125.14"/>
    <polygon class="cls-1" points="324.42 126.16 324.8 125.59 325.46 125.8 325.08 126.37 324.42 126.16"/>
    <polygon class="cls-1" points="323.71 124.12 324.09 123.55 324.75 123.76 324.37 124.34 323.71 124.12"/>
    <polygon class="cls-1" points="325.13 128.2 325.51 127.62 326.17 127.83 325.79 128.41 325.13 128.2"/>
    <polygon class="cls-1" points="325.48 129.22 325.87 128.64 326.53 128.85 326.14 129.43 325.48 129.22"/>
    <polygon class="cls-1" points="324.77 127.18 325.16 126.61 325.82 126.82 325.43 127.39 324.77 127.18"/>
    <polygon class="cls-1" points="326.2 131.25 326.58 130.68 327.24 130.89 326.85 131.46 326.2 131.25"/>
    <polygon class="cls-1" points="326.55 132.27 326.93 131.7 327.59 131.91 327.21 132.48 326.55 132.27"/>
    <polygon class="cls-1" points="325.84 130.23 326.22 129.66 326.88 129.87 326.5 130.44 325.84 130.23"/>
    <polygon class="cls-1" points="327.26 134.31 327.65 133.73 328.3 133.94 327.92 134.52 327.26 134.31"/>
    <polygon class="cls-1" points="327.62 135.32 328 134.75 328.66 134.96 328.27 135.53 327.62 135.32"/>
    <polygon class="cls-1" points="326.91 133.29 327.29 132.71 327.95 132.92 327.56 133.5 326.91 133.29"/>
    <polygon class="cls-1" points="328.33 137.36 328.71 136.79 329.37 137 328.98 137.57 328.33 137.36"/>
    <polygon class="cls-1" points="328.68 138.38 329.07 137.8 329.72 138.01 329.34 138.59 328.68 138.38"/>
    <polygon class="cls-1" points="327.97 136.34 328.36 135.77 329.01 135.98 328.63 136.55 327.97 136.34"/>
    <polygon class="cls-1" points="329.39 140.41 329.78 139.84 330.43 140.05 330.05 140.63 329.39 140.41"/>
    <polygon class="cls-1" points="329.75 141.43 330.13 140.86 330.79 141.07 330.41 141.64 329.75 141.43"/>
    <polygon class="cls-1" points="329.04 139.4 329.42 138.82 330.08 139.03 329.7 139.61 329.04 139.4"/>
    <polygon class="cls-1" points="330.46 143.47 330.84 142.89 331.5 143.11 331.12 143.68 330.46 143.47"/>
    <polygon class="cls-1" points="330.81 144.49 331.2 143.91 331.86 144.12 331.47 144.7 330.81 144.49"/>
    <polygon class="cls-1" points="330.1 142.45 330.49 141.88 331.15 142.09 330.76 142.66 330.1 142.45"/>
    <polygon class="cls-1" points="331.52 146.52 331.91 145.95 332.57 146.16 332.18 146.73 331.52 146.52"/>
    <polygon class="cls-1" points="331.88 147.54 332.26 146.97 332.92 147.18 332.54 147.75 331.88 147.54"/>
    <polygon class="cls-1" points="331.17 145.51 331.55 144.93 332.21 145.14 331.83 145.72 331.17 145.51"/>
    <polygon class="cls-1" points="332.59 149.58 332.97 149 333.63 149.21 333.25 149.79 332.59 149.58"/>
    <polygon class="cls-1" points="332.94 150.6 333.33 150.02 333.99 150.23 333.6 150.81 332.94 150.6"/>
    <polygon class="cls-1" points="332.23 148.56 332.62 147.99 333.28 148.2 332.89 148.77 332.23 148.56"/>
    <polygon class="cls-1" points="333.65 152.63 334.04 152.06 334.7 152.27 334.31 152.84 333.65 152.63"/>
    <polygon class="cls-1" points="334.01 153.65 334.39 153.08 335.05 153.29 334.67 153.86 334.01 153.65"/>
    <polygon class="cls-1" points="333.3 151.61 333.68 151.04 334.34 151.25 333.96 151.82 333.3 151.61"/>
    <polygon class="cls-1" points="334.72 155.69 335.1 155.11 335.76 155.32 335.38 155.9 334.72 155.69"/>
    <polygon class="cls-1" points="335.08 156.7 335.46 156.13 336.12 156.34 335.73 156.92 335.08 156.7"/>
    <polygon class="cls-1" points="334.37 154.67 334.75 154.09 335.41 154.3 335.02 154.88 334.37 154.67"/>
    <polygon class="cls-1" points="335.79 158.74 336.17 158.17 336.83 158.38 336.44 158.95 335.79 158.74"/>
    <polygon class="cls-1" points="336.14 159.76 336.53 159.18 337.18 159.4 336.8 159.97 336.14 159.76"/>
    <polygon class="cls-1" points="335.43 157.72 335.82 157.15 336.47 157.36 336.09 157.93 335.43 157.72"/>
    <polygon class="cls-1" points="336.85 161.8 337.24 161.22 337.89 161.43 337.51 162.01 336.85 161.8"/>
    <polygon class="cls-1" points="337.21 162.81 337.59 162.24 338.25 162.45 337.87 163.02 337.21 162.81"/>
    <polygon class="cls-1" points="336.5 160.78 336.88 160.2 337.54 160.41 337.15 160.99 336.5 160.78"/>
    <polygon class="cls-1" points="337.92 164.85 338.3 164.28 338.96 164.49 338.58 165.06 337.92 164.85"/>
    <polygon class="cls-1" points="338.27 165.87 338.66 165.29 339.32 165.5 338.93 166.08 338.27 165.87"/>
    <polygon class="cls-1" points="337.56 163.83 337.95 163.26 338.6 163.47 338.22 164.04 337.56 163.83"/>
    <polygon class="cls-1" points="338.98 167.9 339.37 167.33 340.03 167.54 339.64 168.11 338.98 167.9"/>
    <polygon class="cls-1" points="339.34 168.92 339.72 168.35 340.38 168.56 340 169.13 339.34 168.92"/>
    <polygon class="cls-1" points="338.63 166.89 339.01 166.31 339.67 166.52 339.29 167.1 338.63 166.89"/>
    <polygon class="cls-1" points="340.05 170.96 340.43 170.38 341.09 170.59 340.71 171.17 340.05 170.96"/>
    <polygon class="cls-1" points="340.4 171.98 340.79 171.4 341.45 171.61 341.06 172.19 340.4 171.98"/>
    <polygon class="cls-1" points="339.69 169.94 340.08 169.37 340.74 169.58 340.35 170.15 339.69 169.94"/>
    <polygon class="cls-1" points="341.11 174.01 341.5 173.44 342.16 173.65 341.77 174.22 341.11 174.01"/>
    <polygon class="cls-1" points="341.47 175.03 341.85 174.46 342.51 174.67 342.13 175.24 341.47 175.03"/>
    <polygon class="cls-1" points="340.76 172.99 341.14 172.42 341.8 172.63 341.42 173.21 340.76 172.99"/>
    <polygon class="cls-1" points="342.18 177.07 342.56 176.49 343.22 176.7 342.84 177.28 342.18 177.07"/>
    <polygon class="cls-1" points="342.54 178.09 342.92 177.51 343.58 177.72 343.19 178.3 342.54 178.09"/>
    <polygon class="cls-1" points="341.83 176.05 342.21 175.47 342.87 175.69 342.48 176.26 341.83 176.05"/>
    <polygon class="cls-1" points="343.25 180.12 343.63 179.55 344.29 179.76 343.9 180.33 343.25 180.12"/>
    <polygon class="cls-1" points="343.6 181.14 343.99 180.57 344.64 180.78 344.26 181.35 343.6 181.14"/>
    <polygon class="cls-1" points="342.89 179.1 343.28 178.53 343.93 178.74 343.55 179.31 342.89 179.1"/>
    <polygon class="cls-1" points="344.31 183.18 344.7 182.6 345.35 182.81 344.97 183.39 344.31 183.18"/>
    <polygon class="cls-1" points="344.67 184.19 345.05 183.62 345.71 183.83 345.33 184.4 344.67 184.19"/>
    <polygon class="cls-1" points="343.96 182.16 344.34 181.58 345 181.79 344.61 182.37 343.96 182.16"/>
    <polygon class="cls-1" points="345.38 186.23 345.76 185.66 346.42 185.87 346.04 186.44 345.38 186.23"/>
    <polygon class="cls-1" points="345.73 187.25 346.12 186.67 346.78 186.88 346.39 187.46 345.73 187.25"/>
    <polygon class="cls-1" points="345.02 185.21 345.41 184.64 346.06 184.85 345.68 185.42 345.02 185.21"/>
    <polygon class="cls-1" points="346.09 188.28 346.48 187.7 347.13 187.91 346.75 188.49 346.09 188.28"/>
    <polygon class="cls-1" points="346.45 189.3 346.83 188.72 347.49 188.93 347.11 189.51 346.45 189.3"/>
    <polygon class="cls-1" points="346.8 190.31 347.19 189.74 347.84 189.95 347.46 190.53 346.8 190.31"/>
    <polygon class="cls-1" points="347.13 191.28 347.52 190.71 348.18 190.92 347.79 191.49 347.13 191.28"/>
    <polygon class="cls-1" points="347.49 192.3 347.87 191.72 348.53 191.93 348.15 192.51 347.49 192.3"/>
    <polygon class="cls-1" points="348.2 194.33 348.58 193.76 349.24 193.97 348.86 194.54 348.2 194.33"/>
    <polygon class="cls-1" points="348.56 195.35 348.94 194.78 349.6 194.99 349.21 195.56 348.56 195.35"/>
    <polygon class="cls-1" points="347.84 193.32 348.23 192.74 348.89 192.95 348.5 193.53 347.84 193.32"/>
    <polygon class="cls-1" points="349.27 197.39 349.65 196.81 350.31 197.02 349.92 197.6 349.27 197.39"/>
    <polygon class="cls-1" points="349.62 198.41 350.01 197.83 350.66 198.04 350.28 198.62 349.62 198.41"/>
    <polygon class="cls-1" points="348.91 196.37 349.3 195.8 349.95 196.01 349.57 196.58 348.91 196.37"/>
    <polygon class="cls-1" points="350.33 200.44 350.72 199.87 351.37 200.08 350.99 200.65 350.33 200.44"/>
    <polygon class="cls-1" points="350.69 201.46 351.07 200.89 351.73 201.1 351.34 201.67 350.69 201.46"/>
    <polygon class="cls-1" points="349.98 199.42 350.36 198.85 351.02 199.06 350.63 199.64 349.98 199.42"/>
    <polygon class="cls-1" points="351.4 203.5 351.78 202.92 352.44 203.13 352.06 203.71 351.4 203.5"/>
    <polygon class="cls-1" points="351.75 204.52 352.14 203.94 352.8 204.15 352.41 204.73 351.75 204.52"/>
    <polygon class="cls-1" points="351.04 202.48 351.43 201.9 352.08 202.12 351.7 202.69 351.04 202.48"/>
    <polygon class="cls-1" points="352.46 206.55 352.85 205.98 353.51 206.19 353.12 206.76 352.46 206.55"/>
    <polygon class="cls-1" points="352.82 207.57 353.2 207 353.86 207.21 353.48 207.78 352.82 207.57"/>
    <polygon class="cls-1" points="352.11 205.53 352.49 204.96 353.15 205.17 352.77 205.74 352.11 205.53"/>
    <polygon class="cls-1" points="353.53 209.61 353.91 209.03 354.57 209.24 354.19 209.82 353.53 209.61"/>
    <polygon class="cls-1" points="353.88 210.62 354.27 210.05 354.93 210.26 354.54 210.83 353.88 210.62"/>
    <polygon class="cls-1" points="353.17 208.59 353.56 208.01 354.22 208.22 353.83 208.8 353.17 208.59"/>
    <polygon class="cls-1" points="354.59 212.66 354.98 212.09 355.64 212.3 355.25 212.87 354.59 212.66"/>
    <polygon class="cls-1" points="354.95 213.68 355.33 213.1 355.99 213.31 355.61 213.89 354.95 213.68"/>
    <polygon class="cls-1" points="354.24 211.64 354.62 211.07 355.28 211.28 354.9 211.85 354.24 211.64"/>
    <polygon class="cls-1" points="355.66 215.71 356.04 215.14 356.7 215.35 356.32 215.93 355.66 215.71"/>
    <polygon class="cls-1" points="356.02 216.73 356.4 216.16 357.06 216.37 356.67 216.94 356.02 216.73"/>
    <polygon class="cls-1" points="355.3 214.7 355.69 214.12 356.35 214.33 355.96 214.91 355.3 214.7"/>
    <polygon class="cls-1" points="356.37 217.75 356.75 217.18 357.41 217.39 357.03 217.96 356.37 217.75"/>
  </g>
  <polygon class="cls-1" points="345.94 131.58 431.54 131.58 443.01 101.12 336.41 101.12 345.94 131.58"/>
  <polygon class="cls-1" points="410.15 101.12 357.1 253.44 389.36 253.44 442.51 101.22 410.15 101.12"/>
</svg>